<svg width="97" height="14" viewBox="0 0 97 14" fill="none" xmlns="http://www.w3.org/2000/svg">
<g clip-path="url(#clip0_3103_967)">
<path d="M9 7.5C11.4853 7.5 13.5 6.60457 13.5 5.5C13.5 4.39543 11.4853 3.5 9 3.5C6.51472 3.5 4.5 4.39543 4.5 5.5C4.5 6.60457 6.51472 7.5 9 7.5Z" stroke="#01AEEA" stroke-linecap="round" stroke-linejoin="round"/>
<path d="M4.5 5.5V11.5C4.5 12.6 6.5 13.5 9 13.5C11.5 13.5 13.5 12.6 13.5 11.5V5.5" stroke="#01AEEA" stroke-linecap="round" stroke-linejoin="round"/>
<path d="M13.5 8.50096C13.5 9.60096 11.5 10.501 9 10.501C6.5 10.501 4.5 9.60096 4.5 8.50096M8.9 1.50096C7.73149 0.77984 6.37133 0.43108 5 0.500964C2.51 0.500964 0.5 1.40096 0.5 2.50096C0.5 3.09096 1.08 3.62096 2 4.00096" stroke="#01AEEA" stroke-linecap="round" stroke-linejoin="round"/>
<path d="M2 10C1.08 9.62 0.5 9.09 0.5 8.5V2.5" stroke="#01AEEA" stroke-linecap="round" stroke-linejoin="round"/>
<path d="M2 7C1.08 6.62 0.5 6.09 0.5 5.5" stroke="#01AEEA" stroke-linecap="round" stroke-linejoin="round"/>
</g>
<path d="M18.022 5.008C18.246 4.896 18.456 4.798 18.652 4.714C18.848 4.62067 19.044 4.546 19.24 4.49C19.436 4.434 19.6367 4.392 19.842 4.364C20.0473 4.336 20.2713 4.322 20.514 4.322C20.878 4.322 21.2093 4.364 21.508 4.448C21.816 4.52267 22.0773 4.65333 22.292 4.84C22.516 5.02667 22.6887 5.274 22.81 5.582C22.9313 5.88067 22.992 6.25867 22.992 6.716V11H21.97L21.816 10.272H21.788C21.4987 10.58 21.1813 10.7993 20.836 10.93C20.4907 11.0607 20.108 11.126 19.688 11.126C19.3707 11.126 19.0767 11.084 18.806 11C18.5447 10.9067 18.316 10.7807 18.12 10.622C17.924 10.454 17.77 10.2533 17.658 10.02C17.5553 9.78667 17.504 9.52533 17.504 9.236C17.504 8.54533 17.7747 8.02267 18.316 7.668C18.8667 7.304 19.59 7.122 20.486 7.122H21.746V6.562C21.746 6.086 21.6247 5.764 21.382 5.596C21.1393 5.41867 20.8127 5.33 20.402 5.33C20.1593 5.33 19.8793 5.372 19.562 5.456C19.254 5.53067 18.8993 5.68 18.498 5.904L18.022 5.008ZM21.76 7.962L20.724 7.99C20.024 8.00867 19.5247 8.13467 19.226 8.368C18.9367 8.592 18.792 8.86733 18.792 9.194C18.792 9.39 18.8247 9.558 18.89 9.698C18.9553 9.82867 19.0393 9.93133 19.142 10.006C19.254 10.0807 19.38 10.1367 19.52 10.174C19.6693 10.202 19.8233 10.216 19.982 10.216C20.29 10.216 20.6027 10.146 20.92 10.006C21.2373 9.85667 21.5173 9.62333 21.76 9.306V7.962ZM28.4836 10.174C28.7823 10.174 29.0436 10.1413 29.2676 10.076C29.4916 10.0107 29.7109 9.92667 29.9256 9.824L30.1916 10.748C29.6876 11 29.0856 11.126 28.3856 11.126C27.9096 11.126 27.4616 11.056 27.0416 10.916C26.6309 10.776 26.2669 10.566 25.9496 10.286C25.6416 9.99667 25.3989 9.642 25.2216 9.222C25.0443 8.79267 24.9556 8.29333 24.9556 7.724C24.9556 7.20133 25.0396 6.73 25.2076 6.31C25.3756 5.89 25.6089 5.53533 25.9076 5.246C26.2063 4.94733 26.5656 4.71867 26.9856 4.56C27.4056 4.40133 27.8676 4.322 28.3716 4.322C28.6609 4.322 28.9409 4.34533 29.2116 4.392C29.4916 4.42933 29.8089 4.52733 30.1636 4.686L29.8836 5.624C29.4543 5.38133 28.9923 5.26 28.4976 5.26C27.8163 5.26 27.2656 5.47467 26.8456 5.904C26.4256 6.324 26.2156 6.91667 26.2156 7.682C26.2156 8.158 26.2809 8.55467 26.4116 8.872C26.5423 9.18933 26.7149 9.446 26.9296 9.642C27.1443 9.82867 27.3869 9.964 27.6576 10.048C27.9283 10.132 28.2036 10.174 28.4836 10.174ZM34.8131 10.174C35.1118 10.174 35.3731 10.1413 35.5971 10.076C35.8211 10.0107 36.0405 9.92667 36.2551 9.824L36.5211 10.748C36.0171 11 35.4151 11.126 34.7151 11.126C34.2391 11.126 33.7911 11.056 33.3711 10.916C32.9605 10.776 32.5965 10.566 32.2791 10.286C31.9711 9.99667 31.7285 9.642 31.5511 9.222C31.3738 8.79267 31.2851 8.29333 31.2851 7.724C31.2851 7.20133 31.3691 6.73 31.5371 6.31C31.7051 5.89 31.9385 5.53533 32.2371 5.246C32.5358 4.94733 32.8951 4.71867 33.3151 4.56C33.7351 4.40133 34.1971 4.322 34.7011 4.322C34.9905 4.322 35.2705 4.34533 35.5411 4.392C35.8211 4.42933 36.1385 4.52733 36.4931 4.686L36.2131 5.624C35.7838 5.38133 35.3218 5.26 34.8271 5.26C34.1458 5.26 33.5951 5.47467 33.1751 5.904C32.7551 6.324 32.5451 6.91667 32.5451 7.682C32.5451 8.158 32.6105 8.55467 32.7411 8.872C32.8718 9.18933 33.0445 9.446 33.2591 9.642C33.4738 9.82867 33.7165 9.964 33.9871 10.048C34.2578 10.132 34.5331 10.174 34.8131 10.174ZM44.0547 7.64C44.0547 8.19067 43.9707 8.68533 43.8027 9.124C43.6347 9.55333 43.4013 9.91733 43.1027 10.216C42.8133 10.5147 42.4727 10.7433 42.0807 10.902C41.6887 11.0513 41.264 11.126 40.8067 11.126C40.3493 11.126 39.9247 11.056 39.5327 10.916C39.15 10.7667 38.814 10.552 38.5247 10.272C38.2447 9.98267 38.0207 9.63267 37.8527 9.222C37.694 8.802 37.6147 8.32133 37.6147 7.78C37.6147 7.22933 37.6987 6.73933 37.8667 6.31C38.0347 5.88067 38.2633 5.52133 38.5527 5.232C38.8513 4.93333 39.1967 4.70933 39.5887 4.56C39.9807 4.40133 40.4053 4.322 40.8627 4.322C41.32 4.322 41.74 4.392 42.1227 4.532C42.5147 4.672 42.8507 4.882 43.1307 5.162C43.42 5.442 43.644 5.792 43.8027 6.212C43.9707 6.62267 44.0547 7.09867 44.0547 7.64ZM42.7667 7.71C42.7667 7.27133 42.7107 6.898 42.5987 6.59C42.4867 6.282 42.3373 6.03 42.1507 5.834C41.9733 5.638 41.768 5.498 41.5347 5.414C41.3013 5.32067 41.0633 5.274 40.8207 5.274C40.578 5.274 40.34 5.31133 40.1067 5.386C39.8733 5.46067 39.668 5.59133 39.4907 5.778C39.3133 5.96467 39.1687 6.21667 39.0567 6.534C38.954 6.842 38.9027 7.234 38.9027 7.71C38.9027 8.14867 38.9587 8.52667 39.0707 8.844C39.1827 9.152 39.3273 9.404 39.5047 9.6C39.6913 9.796 39.9013 9.94067 40.1347 10.034C40.368 10.1273 40.606 10.174 40.8487 10.174C41.0913 10.174 41.3293 10.1367 41.5627 10.062C41.796 9.978 42.0013 9.84267 42.1787 9.656C42.356 9.46 42.496 9.208 42.5987 8.9C42.7107 8.58267 42.7667 8.186 42.7667 7.71ZM50.5239 4.42H51.7559V11H50.7899L50.6219 10.174H50.5659C50.3232 10.4447 50.0199 10.6733 49.6559 10.86C49.3012 11.0373 48.8859 11.126 48.4099 11.126C47.7285 11.126 47.1732 10.9347 46.7439 10.552C46.3239 10.16 46.1139 9.572 46.1139 8.788V4.42H47.3459V8.634C47.3459 8.914 47.3785 9.152 47.4439 9.348C47.5185 9.544 47.6119 9.70267 47.7239 9.824C47.8452 9.936 47.9852 10.02 48.1439 10.076C48.3025 10.1227 48.4752 10.146 48.6619 10.146C49.0352 10.146 49.3712 10.0667 49.6699 9.908C49.9685 9.74933 50.2532 9.53 50.5239 9.25V4.42ZM55.4527 11H54.2207V4.42H55.1867L55.3687 5.33C55.6954 5.00333 56.0361 4.756 56.3907 4.588C56.7547 4.41067 57.1701 4.322 57.6367 4.322C58.3087 4.322 58.8361 4.51333 59.2187 4.896C59.6014 5.26933 59.7927 5.792 59.7927 6.464V11H58.5607V6.646C58.5607 6.24467 58.4534 5.92733 58.2387 5.694C58.0334 5.45133 57.7161 5.33 57.2867 5.33C56.6334 5.33 56.0221 5.624 55.4527 6.212V11ZM65.6489 5.344H63.7169V9.166C63.7169 9.49267 63.7962 9.712 63.9549 9.824C64.1229 9.936 64.3376 9.992 64.5989 9.992C64.7856 9.992 64.9909 9.97333 65.2149 9.936C65.4389 9.88933 65.6349 9.838 65.8029 9.782L65.9989 10.72C65.8122 10.7947 65.5742 10.86 65.2849 10.916C64.9956 10.972 64.6922 11 64.3749 11C63.7216 11 63.2456 10.86 62.9469 10.58C62.6482 10.2907 62.4989 9.87533 62.4989 9.334V5.344H61.5189V4.42H62.4989V2.32H63.7169V4.42H65.6489V5.344ZM67.9205 5.008C68.1445 4.896 68.3545 4.798 68.5505 4.714C68.7465 4.62067 68.9425 4.546 69.1385 4.49C69.3345 4.434 69.5352 4.392 69.7405 4.364C69.9458 4.336 70.1698 4.322 70.4125 4.322C70.7765 4.322 71.1078 4.364 71.4065 4.448C71.7145 4.52267 71.9758 4.65333 72.1905 4.84C72.4145 5.02667 72.5872 5.274 72.7085 5.582C72.8298 5.88067 72.8905 6.25867 72.8905 6.716V11H71.8685L71.7145 10.272H71.6865C71.3972 10.58 71.0798 10.7993 70.7345 10.93C70.3892 11.0607 70.0065 11.126 69.5865 11.126C69.2692 11.126 68.9752 11.084 68.7045 11C68.4432 10.9067 68.2145 10.7807 68.0185 10.622C67.8225 10.454 67.6685 10.2533 67.5565 10.02C67.4538 9.78667 67.4025 9.52533 67.4025 9.236C67.4025 8.54533 67.6732 8.02267 68.2145 7.668C68.7652 7.304 69.4885 7.122 70.3845 7.122H71.6445V6.562C71.6445 6.086 71.5232 5.764 71.2805 5.596C71.0378 5.41867 70.7112 5.33 70.3005 5.33C70.0578 5.33 69.7778 5.372 69.4605 5.456C69.1525 5.53067 68.7978 5.68 68.3965 5.904L67.9205 5.008ZM71.6585 7.962L70.6225 7.99C69.9225 8.00867 69.4232 8.13467 69.1245 8.368C68.8352 8.592 68.6905 8.86733 68.6905 9.194C68.6905 9.39 68.7232 9.558 68.7885 9.698C68.8538 9.82867 68.9378 9.93133 69.0405 10.006C69.1525 10.0807 69.2785 10.1367 69.4185 10.174C69.5678 10.202 69.7218 10.216 69.8805 10.216C70.1885 10.216 70.5012 10.146 70.8185 10.006C71.1358 9.85667 71.4158 9.62333 71.6585 9.306V7.962ZM78.9561 5.652C78.6481 5.50267 78.3681 5.4 78.1161 5.344C77.8641 5.288 77.6121 5.26 77.3601 5.26C76.9121 5.26 76.5808 5.344 76.3661 5.512C76.1515 5.67067 76.0441 5.88533 76.0441 6.156C76.0441 6.352 76.1188 6.52467 76.2681 6.674C76.4175 6.814 76.7301 6.954 77.2061 7.094L77.6261 7.22C78.2515 7.40667 78.7228 7.64933 79.0401 7.948C79.3668 8.23733 79.5301 8.634 79.5301 9.138C79.5301 9.73533 79.3061 10.216 78.8581 10.58C78.4195 10.944 77.8035 11.126 77.0101 11.126C76.5901 11.126 76.1841 11.0887 75.7921 11.014C75.4095 10.9393 75.0781 10.8367 74.7981 10.706L75.0921 9.74C75.3628 9.87067 75.6568 9.978 75.9741 10.062C76.2915 10.1367 76.6135 10.174 76.9401 10.174C77.3601 10.174 77.6915 10.0993 77.9341 9.95C78.1861 9.80067 78.3121 9.55333 78.3121 9.208C78.3121 8.90933 78.2048 8.69933 77.9901 8.578C77.7755 8.44733 77.4675 8.32133 77.0661 8.2L76.6321 8.06C76.0255 7.864 75.5728 7.62133 75.2741 7.332C74.9848 7.03333 74.8401 6.65067 74.8401 6.184C74.8401 5.904 74.9008 5.64733 75.0221 5.414C75.1435 5.18067 75.3068 4.98467 75.5121 4.826C75.7268 4.66733 75.9788 4.546 76.2681 4.462C76.5575 4.36867 76.8748 4.322 77.2201 4.322C77.5468 4.322 77.8828 4.35467 78.2281 4.42C78.5828 4.476 78.9188 4.574 79.2361 4.714L78.9561 5.652ZM87.0529 7.85H82.3349V7.906C82.3349 8.634 82.5309 9.194 82.9229 9.586C83.3243 9.978 83.8656 10.174 84.5469 10.174C84.9016 10.174 85.2143 10.146 85.4849 10.09C85.7649 10.034 86.0683 9.94067 86.3949 9.81L86.6469 10.72C86.3763 10.8413 86.0543 10.9393 85.6809 11.014C85.3169 11.0887 84.9249 11.126 84.5049 11.126C84.0289 11.126 83.5809 11.0607 83.1609 10.93C82.7503 10.7993 82.3863 10.5987 82.0689 10.328C81.7516 10.048 81.4996 9.69333 81.3129 9.264C81.1356 8.83467 81.0469 8.32133 81.0469 7.724C81.0469 7.21067 81.1216 6.744 81.2709 6.324C81.4296 5.904 81.6489 5.54933 81.9289 5.26C82.2089 4.96133 82.5449 4.73267 82.9369 4.574C83.3383 4.406 83.7863 4.322 84.2809 4.322C84.7009 4.322 85.0789 4.392 85.4149 4.532C85.7603 4.672 86.0543 4.868 86.2969 5.12C86.5396 5.372 86.7263 5.67533 86.8569 6.03C86.9876 6.38467 87.0529 6.77667 87.0529 7.206V7.85ZM85.7789 6.968C85.7789 6.72533 85.7463 6.50133 85.6809 6.296C85.6249 6.08133 85.5316 5.89467 85.4009 5.736C85.2796 5.57733 85.1209 5.45133 84.9249 5.358C84.7289 5.26467 84.4909 5.218 84.2109 5.218C83.6976 5.218 83.2776 5.38133 82.9509 5.708C82.6336 6.03467 82.4376 6.464 82.3629 6.996L85.7789 6.968ZM90.2996 11H89.0676V4.42H90.0336L90.2156 5.33C90.5423 5.00333 90.883 4.756 91.2376 4.588C91.6016 4.41067 92.017 4.322 92.4836 4.322C93.1556 4.322 93.683 4.51333 94.0656 4.896C94.4483 5.26933 94.6396 5.792 94.6396 6.464V11H93.4076V6.646C93.4076 6.24467 93.3003 5.92733 93.0856 5.694C92.8803 5.45133 92.563 5.33 92.1336 5.33C91.4803 5.33 90.869 5.624 90.2996 6.212V11Z" fill="white"/>
<defs>
<clipPath id="clip0_3103_967">
<rect width="14" height="14" fill="white"/>
</clipPath>
</defs>
</svg>
