<svg width="601" height="287" viewBox="0 0 601 287" fill="none" xmlns="http://www.w3.org/2000/svg">
<path d="M2.1 119L17.4 38H37.8L52.9 119H36.4L33.7 101.9H21.8L19 119H2.1ZM23.4 91.2H32L27.7 59.6L23.4 91.2ZM70.3781 119V61.2H86.6781V70.8C88.5448 67.4667 90.4115 64.9333 92.2781 63.2C94.1448 61.4 96.4115 60.5 99.0781 60.5C99.6115 60.5 100.078 60.5333 100.478 60.6C100.878 60.6 101.245 60.6667 101.578 60.8V77C100.845 76.6667 100.011 76.4 99.0781 76.2C98.2115 75.9333 97.2781 75.8 96.2781 75.8C94.4115 75.8 92.6781 76.3 91.0781 77.3C89.4781 78.3 88.0115 79.6667 86.6781 81.4V119H70.3781ZM130.066 120C127.133 120 124.666 119.3 122.666 117.9C120.666 116.5 119.166 114.733 118.166 112.6C117.166 110.4 116.666 108.167 116.666 105.9C116.666 102.3 117.366 99.2667 118.766 96.8C120.233 94.3333 122.133 92.2667 124.466 90.6C126.8 88.9333 129.366 87.5333 132.166 86.4C134.966 85.2 137.733 84.1333 140.466 83.2V77.4C140.466 76.4 140.366 75.5333 140.166 74.8C139.966 74 139.633 73.4 139.166 73C138.7 72.5333 138 72.3 137.066 72.3C136.133 72.3 135.4 72.5 134.866 72.9C134.4 73.3 134.066 73.8667 133.866 74.6C133.666 75.2667 133.533 76.0333 133.466 76.9L133.066 81.1L117.866 80.5C118.2 73.5667 120.033 68.4667 123.366 65.2C126.766 61.8667 131.833 60.2 138.566 60.2C144.433 60.2 148.8 61.8333 151.666 65.1C154.6 68.3 156.066 72.4667 156.066 77.6V104.6C156.066 107 156.1 109.1 156.166 110.9C156.3 112.7 156.433 114.267 156.566 115.6C156.766 116.933 156.933 118.067 157.066 119H142.466C142.266 117.467 142.033 115.8 141.766 114C141.5 112.2 141.3 111.133 141.166 110.8C140.5 113.2 139.233 115.333 137.366 117.2C135.566 119.067 133.133 120 130.066 120ZM135.866 109C136.533 109 137.133 108.867 137.666 108.6C138.266 108.333 138.8 107.967 139.266 107.5C139.733 107.033 140.133 106.567 140.466 106.1V90.3C139.133 91.1 137.9 91.9333 136.766 92.8C135.633 93.6 134.666 94.5 133.866 95.5C133.066 96.5 132.433 97.6 131.966 98.8C131.566 99.9333 131.366 101.233 131.366 102.7C131.366 104.633 131.766 106.167 132.566 107.3C133.366 108.433 134.466 109 135.866 109ZM204.425 120C202.292 120 200.158 119.533 198.025 118.6C195.958 117.6 193.958 116.267 192.025 114.6V119H175.725V38H192.025V65.4C194.025 63.6667 196.092 62.3667 198.225 61.5C200.425 60.6333 202.558 60.2 204.625 60.2C206.825 60.2 208.692 60.6333 210.225 61.5C211.825 62.3667 213.125 63.6 214.125 65.2C215.125 66.7333 215.858 68.5333 216.325 70.6C216.792 72.6667 217.025 74.8667 217.025 77.2V102.1C217.025 105.7 216.525 108.833 215.525 111.5C214.592 114.167 213.192 116.267 211.325 117.8C209.458 119.267 207.158 120 204.425 120ZM196.525 109.5C197.592 109.5 198.425 109.2 199.025 108.6C199.625 108 200.058 107.233 200.325 106.3C200.592 105.3 200.725 104.2 200.725 103V76C200.725 74.8667 200.592 73.8667 200.325 73C200.058 72.0667 199.625 71.3333 199.025 70.8C198.492 70.2667 197.725 70 196.725 70C195.858 70 195.025 70.2 194.225 70.6C193.492 70.9333 192.758 71.3667 192.025 71.9V107.9C192.758 108.367 193.492 108.767 194.225 109.1C195.025 109.367 195.792 109.5 196.525 109.5ZM236.411 119V61.2H252.711V119H236.411ZM236.311 51.4V40.1H252.711V51.4H236.311ZM291.576 120C287.376 120 283.776 119.233 280.776 117.7C277.842 116.167 275.576 113.967 273.976 111.1C272.376 108.233 271.576 104.767 271.576 100.7V79.5C271.576 75.3667 272.376 71.8667 273.976 69C275.576 66.1333 277.842 63.9667 280.776 62.5C283.776 60.9667 287.376 60.2 291.576 60.2C295.709 60.2 299.209 60.8333 302.076 62.1C305.009 63.3667 307.242 65.3 308.776 67.9C310.309 70.4333 311.076 73.6667 311.076 77.6V83.7H295.376V77.1C295.376 75.5667 295.209 74.4 294.876 73.6C294.609 72.7333 294.176 72.1333 293.576 71.8C293.042 71.4667 292.376 71.3 291.576 71.3C290.776 71.3 290.109 71.5333 289.576 72C289.042 72.4 288.642 73.1 288.376 74.1C288.109 75.0333 287.976 76.3667 287.976 78.1V102.1C287.976 104.7 288.276 106.467 288.876 107.4C289.542 108.333 290.476 108.8 291.676 108.8C292.542 108.8 293.242 108.633 293.776 108.3C294.309 107.9 294.709 107.3 294.976 106.5C295.242 105.633 295.376 104.5 295.376 103.1V95.4H311.076V102.4C311.076 106.267 310.276 109.533 308.676 112.2C307.142 114.8 304.909 116.767 301.976 118.1C299.109 119.367 295.642 120 291.576 120ZM341.453 120C338.52 120 336.053 119.3 334.053 117.9C332.053 116.5 330.553 114.733 329.553 112.6C328.553 110.4 328.053 108.167 328.053 105.9C328.053 102.3 328.753 99.2667 330.153 96.8C331.62 94.3333 333.52 92.2667 335.853 90.6C338.186 88.9333 340.753 87.5333 343.553 86.4C346.353 85.2 349.12 84.1333 351.853 83.2V77.4C351.853 76.4 351.753 75.5333 351.553 74.8C351.353 74 351.02 73.4 350.553 73C350.086 72.5333 349.386 72.3 348.453 72.3C347.52 72.3 346.786 72.5 346.253 72.9C345.786 73.3 345.453 73.8667 345.253 74.6C345.053 75.2667 344.92 76.0333 344.853 76.9L344.453 81.1L329.253 80.5C329.586 73.5667 331.42 68.4667 334.753 65.2C338.153 61.8667 343.22 60.2 349.953 60.2C355.82 60.2 360.186 61.8333 363.053 65.1C365.986 68.3 367.453 72.4667 367.453 77.6V104.6C367.453 107 367.486 109.1 367.553 110.9C367.686 112.7 367.82 114.267 367.953 115.6C368.153 116.933 368.32 118.067 368.453 119H353.853C353.653 117.467 353.42 115.8 353.153 114C352.886 112.2 352.686 111.133 352.553 110.8C351.886 113.2 350.62 115.333 348.753 117.2C346.953 119.067 344.52 120 341.453 120ZM347.253 109C347.92 109 348.52 108.867 349.053 108.6C349.653 108.333 350.186 107.967 350.653 107.5C351.12 107.033 351.52 106.567 351.853 106.1V90.3C350.52 91.1 349.286 91.9333 348.153 92.8C347.02 93.6 346.053 94.5 345.253 95.5C344.453 96.5 343.82 97.6 343.353 98.8C342.953 99.9333 342.753 101.233 342.753 102.7C342.753 104.633 343.153 106.167 343.953 107.3C344.753 108.433 345.853 109 347.253 109ZM29.2 268.2C23.0667 268.2 18.2 267.1 14.6 264.9C11.0667 262.633 8.56667 259.5 7.1 255.5C5.63333 251.433 4.9 246.667 4.9 241.2V212C4.9 206.4 5.63333 201.6 7.1 197.6C8.56667 193.533 11.0667 190.4 14.6 188.2C18.2 186 23.0667 184.9 29.2 184.9C35.2 184.9 39.8667 185.9 43.2 187.9C46.6 189.833 49 192.567 50.4 196.1C51.8 199.633 52.5 203.7 52.5 208.3V215.3H35V207.2C35 205.6 34.9 204.067 34.7 202.6C34.5667 201.133 34.1 199.933 33.3 199C32.5 198 31.1333 197.5 29.2 197.5C27.3333 197.5 25.9333 198 25 199C24.1333 200 23.5667 201.267 23.3 202.8C23.1 204.267 23 205.833 23 207.5V245.6C23 247.4 23.1333 249.067 23.4 250.6C23.7333 252.067 24.3333 253.267 25.2 254.2C26.1333 255.067 27.4667 255.5 29.2 255.5C31.0667 255.5 32.4 255.033 33.2 254.1C34 253.1 34.5 251.833 34.7 250.3C34.9 248.767 35 247.2 35 245.6V237.1H52.5V244.1C52.5 248.7 51.8 252.833 50.4 256.5C49.0667 260.1 46.7 262.967 43.3 265.1C39.9667 267.167 35.2667 268.2 29.2 268.2ZM83.3477 268C80.4143 268 77.9477 267.3 75.9477 265.9C73.9477 264.5 72.4477 262.733 71.4477 260.6C70.4477 258.4 69.9477 256.167 69.9477 253.9C69.9477 250.3 70.6477 247.267 72.0477 244.8C73.5143 242.333 75.4143 240.267 77.7477 238.6C80.081 236.933 82.6477 235.533 85.4477 234.4C88.2477 233.2 91.0143 232.133 93.7477 231.2V225.4C93.7477 224.4 93.6477 223.533 93.4477 222.8C93.2477 222 92.9143 221.4 92.4477 221C91.981 220.533 91.281 220.3 90.3477 220.3C89.4143 220.3 88.681 220.5 88.1477 220.9C87.681 221.3 87.3477 221.867 87.1477 222.6C86.9477 223.267 86.8143 224.033 86.7477 224.9L86.3477 229.1L71.1477 228.5C71.481 221.567 73.3143 216.467 76.6477 213.2C80.0477 209.867 85.1143 208.2 91.8477 208.2C97.7143 208.2 102.081 209.833 104.948 213.1C107.881 216.3 109.348 220.467 109.348 225.6V252.6C109.348 255 109.381 257.1 109.448 258.9C109.581 260.7 109.714 262.267 109.848 263.6C110.048 264.933 110.214 266.067 110.348 267H95.7477C95.5477 265.467 95.3143 263.8 95.0477 262C94.781 260.2 94.581 259.133 94.4477 258.8C93.781 261.2 92.5143 263.333 90.6477 265.2C88.8477 267.067 86.4143 268 83.3477 268ZM89.1477 257C89.8143 257 90.4143 256.867 90.9477 256.6C91.5477 256.333 92.081 255.967 92.5477 255.5C93.0143 255.033 93.4143 254.567 93.7477 254.1V238.3C92.4143 239.1 91.181 239.933 90.0477 240.8C88.9143 241.6 87.9477 242.5 87.1477 243.5C86.3477 244.5 85.7143 245.6 85.2477 246.8C84.8477 247.933 84.6477 249.233 84.6477 250.7C84.6477 252.633 85.0477 254.167 85.8477 255.3C86.6477 256.433 87.7477 257 89.1477 257ZM146.806 268C141.74 268 137.506 266.867 134.106 264.6C130.773 262.333 128.04 258.633 125.906 253.5L137.006 248.6C138.073 251.2 139.306 253.267 140.706 254.8C142.173 256.267 143.773 257 145.506 257C146.773 257 147.706 256.733 148.306 256.2C148.973 255.667 149.306 254.933 149.306 254C149.306 252.467 148.706 251.067 147.506 249.8C146.373 248.533 144.306 246.667 141.306 244.2L137.106 240.7C134.04 238.1 131.606 235.6 129.806 233.2C128.073 230.733 127.206 227.7 127.206 224.1C127.206 220.967 128.006 218.2 129.606 215.8C131.273 213.4 133.473 211.533 136.206 210.2C138.94 208.867 141.873 208.2 145.006 208.2C149.74 208.2 153.706 209.5 156.906 212.1C160.106 214.7 162.34 218.367 163.606 223.1L153.106 227.9C152.706 226.633 152.14 225.367 151.406 224.1C150.673 222.833 149.773 221.767 148.706 220.9C147.706 220.033 146.606 219.6 145.406 219.6C144.34 219.6 143.473 219.9 142.806 220.5C142.206 221.1 141.906 221.9 141.906 222.9C141.906 224.167 142.606 225.533 144.006 227C145.473 228.467 147.473 230.233 150.006 232.3L154.106 235.9C155.773 237.3 157.406 238.8 159.006 240.4C160.606 242 161.906 243.767 162.906 245.7C163.973 247.633 164.506 249.833 164.506 252.3C164.506 255.633 163.673 258.5 162.006 260.9C160.34 263.233 158.14 265 155.406 266.2C152.74 267.4 149.873 268 146.806 268ZM193.289 268C190.356 268 187.889 267.3 185.889 265.9C183.889 264.5 182.389 262.733 181.389 260.6C180.389 258.4 179.889 256.167 179.889 253.9C179.889 250.3 180.589 247.267 181.989 244.8C183.456 242.333 185.356 240.267 187.689 238.6C190.022 236.933 192.589 235.533 195.389 234.4C198.189 233.2 200.956 232.133 203.689 231.2V225.4C203.689 224.4 203.589 223.533 203.389 222.8C203.189 222 202.856 221.4 202.389 221C201.922 220.533 201.222 220.3 200.289 220.3C199.356 220.3 198.622 220.5 198.089 220.9C197.622 221.3 197.289 221.867 197.089 222.6C196.889 223.267 196.756 224.033 196.689 224.9L196.289 229.1L181.089 228.5C181.422 221.567 183.256 216.467 186.589 213.2C189.989 209.867 195.056 208.2 201.789 208.2C207.656 208.2 212.022 209.833 214.889 213.1C217.822 216.3 219.289 220.467 219.289 225.6V252.6C219.289 255 219.322 257.1 219.389 258.9C219.522 260.7 219.656 262.267 219.789 263.6C219.989 264.933 220.156 266.067 220.289 267H205.689C205.489 265.467 205.256 263.8 204.989 262C204.722 260.2 204.522 259.133 204.389 258.8C203.722 261.2 202.456 263.333 200.589 265.2C198.789 267.067 196.356 268 193.289 268ZM199.089 257C199.756 257 200.356 256.867 200.889 256.6C201.489 256.333 202.022 255.967 202.489 255.5C202.956 255.033 203.356 254.567 203.689 254.1V238.3C202.356 239.1 201.122 239.933 199.989 240.8C198.856 241.6 197.889 242.5 197.089 243.5C196.289 244.5 195.656 245.6 195.189 246.8C194.789 247.933 194.589 249.233 194.589 250.7C194.589 252.633 194.989 254.167 195.789 255.3C196.589 256.433 197.689 257 199.089 257ZM267.648 268C265.514 268 263.381 267.533 261.248 266.6C259.181 265.6 257.181 264.267 255.248 262.6V267H238.948V186H255.248V213.4C257.248 211.667 259.314 210.367 261.448 209.5C263.648 208.633 265.781 208.2 267.848 208.2C270.048 208.2 271.914 208.633 273.448 209.5C275.048 210.367 276.348 211.6 277.348 213.2C278.348 214.733 279.081 216.533 279.548 218.6C280.014 220.667 280.248 222.867 280.248 225.2V250.1C280.248 253.7 279.748 256.833 278.748 259.5C277.814 262.167 276.414 264.267 274.548 265.8C272.681 267.267 270.381 268 267.648 268ZM259.748 257.5C260.814 257.5 261.648 257.2 262.248 256.6C262.848 256 263.281 255.233 263.548 254.3C263.814 253.3 263.948 252.2 263.948 251V224C263.948 222.867 263.814 221.867 263.548 221C263.281 220.067 262.848 219.333 262.248 218.8C261.714 218.267 260.948 218 259.948 218C259.081 218 258.248 218.2 257.448 218.6C256.714 218.933 255.981 219.367 255.248 219.9V255.9C255.981 256.367 256.714 256.767 257.448 257.1C258.248 257.367 259.014 257.5 259.748 257.5ZM300.234 267V186H316.434V267H300.234ZM348.875 268C345.942 268 343.475 267.3 341.475 265.9C339.475 264.5 337.975 262.733 336.975 260.6C335.975 258.4 335.475 256.167 335.475 253.9C335.475 250.3 336.175 247.267 337.575 244.8C339.042 242.333 340.942 240.267 343.275 238.6C345.608 236.933 348.175 235.533 350.975 234.4C353.775 233.2 356.542 232.133 359.275 231.2V225.4C359.275 224.4 359.175 223.533 358.975 222.8C358.775 222 358.442 221.4 357.975 221C357.508 220.533 356.808 220.3 355.875 220.3C354.942 220.3 354.208 220.5 353.675 220.9C353.208 221.3 352.875 221.867 352.675 222.6C352.475 223.267 352.342 224.033 352.275 224.9L351.875 229.1L336.675 228.5C337.008 221.567 338.842 216.467 342.175 213.2C345.575 209.867 350.642 208.2 357.375 208.2C363.242 208.2 367.608 209.833 370.475 213.1C373.408 216.3 374.875 220.467 374.875 225.6V252.6C374.875 255 374.908 257.1 374.975 258.9C375.108 260.7 375.242 262.267 375.375 263.6C375.575 264.933 375.742 266.067 375.875 267H361.275C361.075 265.467 360.842 263.8 360.575 262C360.308 260.2 360.108 259.133 359.975 258.8C359.308 261.2 358.042 263.333 356.175 265.2C354.375 267.067 351.942 268 348.875 268ZM354.675 257C355.342 257 355.942 256.867 356.475 256.6C357.075 256.333 357.608 255.967 358.075 255.5C358.542 255.033 358.942 254.567 359.275 254.1V238.3C357.942 239.1 356.708 239.933 355.575 240.8C354.442 241.6 353.475 242.5 352.675 243.5C351.875 244.5 351.242 245.6 350.775 246.8C350.375 247.933 350.175 249.233 350.175 250.7C350.175 252.633 350.575 254.167 351.375 255.3C352.175 256.433 353.275 257 354.675 257ZM394.534 267V209.2H410.834V215C412.967 212.867 415.167 211.2 417.434 210C419.767 208.8 422.2 208.2 424.734 208.2C427.134 208.2 429.1 208.8 430.634 210C432.234 211.133 433.434 212.733 434.234 214.8C435.034 216.8 435.434 219.1 435.434 221.7V267H419.234V224C419.234 222.6 419 221.533 418.534 220.8C418.067 220.067 417.2 219.7 415.934 219.7C415.267 219.7 414.467 219.9 413.534 220.3C412.667 220.633 411.767 221.133 410.834 221.8V267H394.534ZM474.017 268C469.817 268 466.217 267.233 463.217 265.7C460.284 264.167 458.017 261.967 456.417 259.1C454.817 256.233 454.017 252.767 454.017 248.7V227.5C454.017 223.367 454.817 219.867 456.417 217C458.017 214.133 460.284 211.967 463.217 210.5C466.217 208.967 469.817 208.2 474.017 208.2C478.151 208.2 481.651 208.833 484.517 210.1C487.451 211.367 489.684 213.3 491.217 215.9C492.751 218.433 493.517 221.667 493.517 225.6V231.7H477.817V225.1C477.817 223.567 477.651 222.4 477.317 221.6C477.051 220.733 476.617 220.133 476.017 219.8C475.484 219.467 474.817 219.3 474.017 219.3C473.217 219.3 472.551 219.533 472.017 220C471.484 220.4 471.084 221.1 470.817 222.1C470.551 223.033 470.417 224.367 470.417 226.1V250.1C470.417 252.7 470.717 254.467 471.317 255.4C471.984 256.333 472.917 256.8 474.117 256.8C474.984 256.8 475.684 256.633 476.217 256.3C476.751 255.9 477.151 255.3 477.417 254.5C477.684 253.633 477.817 252.5 477.817 251.1V243.4H493.517V250.4C493.517 254.267 492.717 257.533 491.117 260.2C489.584 262.8 487.351 264.767 484.417 266.1C481.551 267.367 478.084 268 474.017 268ZM523.895 268C520.961 268 518.495 267.3 516.495 265.9C514.495 264.5 512.995 262.733 511.995 260.6C510.995 258.4 510.495 256.167 510.495 253.9C510.495 250.3 511.195 247.267 512.595 244.8C514.061 242.333 515.961 240.267 518.295 238.6C520.628 236.933 523.195 235.533 525.995 234.4C528.795 233.2 531.561 232.133 534.295 231.2V225.4C534.295 224.4 534.195 223.533 533.995 222.8C533.795 222 533.461 221.4 532.995 221C532.528 220.533 531.828 220.3 530.895 220.3C529.961 220.3 529.228 220.5 528.695 220.9C528.228 221.3 527.895 221.867 527.695 222.6C527.495 223.267 527.361 224.033 527.295 224.9L526.895 229.1L511.695 228.5C512.028 221.567 513.861 216.467 517.195 213.2C520.595 209.867 525.661 208.2 532.395 208.2C538.261 208.2 542.628 209.833 545.495 213.1C548.428 216.3 549.895 220.467 549.895 225.6V252.6C549.895 255 549.928 257.1 549.995 258.9C550.128 260.7 550.261 262.267 550.395 263.6C550.595 264.933 550.761 266.067 550.895 267H536.295C536.095 265.467 535.861 263.8 535.595 262C535.328 260.2 535.128 259.133 534.995 258.8C534.328 261.2 533.061 263.333 531.195 265.2C529.395 267.067 526.961 268 523.895 268ZM529.695 257C530.361 257 530.961 256.867 531.495 256.6C532.095 256.333 532.628 255.967 533.095 255.5C533.561 255.033 533.961 254.567 534.295 254.1V238.3C532.961 239.1 531.728 239.933 530.595 240.8C529.461 241.6 528.495 242.5 527.695 243.5C526.895 244.5 526.261 245.6 525.795 246.8C525.395 247.933 525.195 249.233 525.195 250.7C525.195 252.633 525.595 254.167 526.395 255.3C527.195 256.433 528.295 257 529.695 257Z" fill="white"/>
<g clip-path="url(#clip0_709_5)">
<path d="M466.478 39.0238C466.633 39.9515 466.169 40.7252 464.623 41.4981C462.613 40.4157 458.282 39.7968 454.726 40.1063C450.86 40.4157 447.613 41.6529 448.077 44.2812C448.695 46.9102 452.407 48.4568 459.056 47.8379C475.292 46.4461 475.137 35.4671 498.951 33.3023C517.507 31.6016 527.867 37.3232 529.259 44.2812C530.342 49.6933 525.857 54.9514 512.404 56.0338C500.497 57.1162 493.539 53.8689 492.92 50.6217C492.611 48.9204 493.539 46.4461 499.26 45.8278C499.879 48.4568 503.126 51.2399 510.858 50.467C516.425 50.0028 521.063 47.9927 520.445 44.9001C519.827 41.6529 513.951 39.7968 504.672 40.5704C485.807 42.2711 481.168 52.6318 465.086 54.0237C453.644 55.1061 444.365 50.9298 443.128 44.7454C442.665 42.4258 442.665 37.0137 454.726 35.9313C460.911 35.4671 465.86 36.5496 466.478 39.0238ZM406.171 103.661C400.914 110.31 398.594 118.041 399.058 125.619C399.522 133.196 403.233 139.381 409.109 144.175C415.294 148.968 421.943 150.36 429.521 148.968C432.459 148.504 435.706 146.958 438.644 146.03C432.459 146.03 427.201 144.02 421.943 139.845C416.222 135.669 412.356 129.794 411.429 122.68C410.037 116.031 411.429 109.846 415.14 104.434C419.315 99.1765 424.727 96.2381 431.84 95.3104C438.953 94.8469 445.138 96.7022 451.324 101.032C449.932 99.0218 447.922 97.6299 446.067 95.7745C439.881 91.5989 433.232 89.5888 425.036 91.5989C417.614 93.1462 411.429 97.011 406.171 103.661ZM489.055 67.9404C469.106 67.9404 451.324 65.9303 438.489 63.1465C424.727 59.7446 417.459 56.0338 417.459 51.2399C417.459 49.2298 418.387 47.5285 421.171 45.5184C412.511 48.9204 407.872 51.7041 407.872 56.0338C408.336 60.827 416.068 65.6208 431.84 69.3323C446.685 73.0431 465.705 75.0532 488.591 75.0532C511.94 75.0532 530.496 73.0431 545.342 69.3323C561.114 65.6208 568.691 60.6729 568.691 56.0338C568.691 52.6318 565.289 49.3845 559.104 46.9102C560.495 47.8379 561.578 49.3845 561.578 51.0852C561.578 55.8791 554.464 59.7446 540.083 62.9918C526.785 65.9303 509.776 67.9404 489.055 67.9404ZM545.96 81.2389C531.115 84.6409 512.095 86.9605 489.209 86.9605C465.86 86.9605 446.84 84.4862 431.995 81.2389C418.696 77.8369 411.584 74.1255 409.109 70.26C411.583 86.9605 417.305 102.733 424.882 116.65C430.603 125.309 436.324 132.886 442.046 141.082C444.52 145.875 446.221 150.669 447.303 155.463C451.015 160.72 456.428 164.122 463.076 165.978C471.272 168.916 479.777 170.153 488.437 169.689H489.364C498.023 170.153 507.147 168.761 515.497 165.978C521.682 163.968 526.94 160.72 530.806 155.463H531.269C532.197 150.669 533.744 145.875 536.063 141.082C541.785 132.886 547.506 125.309 553.227 116.65C560.804 102.887 566.062 87.1152 569 70.26C565.908 74.5897 558.794 78.3011 545.96 81.2389Z" fill="#CD6000"/>
</g>
<defs>
<clipPath id="clip0_709_5">
<rect width="170" height="136.816" fill="white" transform="translate(399 33)"/>
</clipPath>
</defs>
</svg>
