<svg width="500" height="500" viewBox="0 0 500 500" fill="none" xmlns="http://www.w3.org/2000/svg">
<path d="M92.1595 138C162.23 58.2701 282.53 45.0001 336.16 70.6101C356.998 80.4845 376.274 93.3652 393.37 108.84C395.61 110.84 397.787 112.897 399.9 115.01C406.499 121.51 412.687 128.413 418.43 135.68C425.313 144.373 431.521 153.58 437 163.22C444.851 176.938 451.07 191.527 455.53 206.69C458.481 216.639 460.418 226.861 461.31 237.2C462.84 256.61 461.51 276.2 458.9 295.45C458.66 297.29 458.4 299.13 458.12 300.97C458.05 301.48 457.98 301.97 457.9 302.5C455.03 321.67 450.97 341.01 441.9 357.73C432 376 397.46 426.69 360 428C340.57 428.69 323.41 416 305.8 407C277.8 392.72 246.11 389.92 215.21 389.09C184.31 388.26 153.03 389.15 122.92 381.49C92.8095 373.83 63.2895 356.24 47.8995 327C42.6695 317.06 38.6995 302.74 38.6895 291.28C38.6895 257.47 44.2095 227.9 53.8495 202.21C56.9107 194.018 60.481 186.026 64.5395 178.28C70.4842 166.922 77.4887 156.151 85.4595 146.11L92.1595 138Z" fill="#F4FF00"/>
<g opacity="0.7">
<path opacity="0.7" d="M92.1595 138C162.23 58.2701 282.53 45.0001 336.16 70.6101C356.998 80.4845 376.274 93.3652 393.37 108.84C395.61 110.84 397.787 112.897 399.9 115.01C406.499 121.51 412.687 128.413 418.43 135.68C425.313 144.373 431.521 153.58 437 163.22C444.851 176.938 451.07 191.527 455.53 206.69C458.481 216.639 460.418 226.861 461.31 237.2C462.84 256.61 461.51 276.2 458.9 295.45C458.66 297.29 458.4 299.13 458.12 300.97C458.05 301.48 457.98 301.97 457.9 302.5C455.03 321.67 450.97 341.01 441.9 357.73C432 376 397.46 426.69 360 428C340.57 428.69 323.41 416 305.8 407C277.8 392.72 246.11 389.92 215.21 389.09C184.31 388.26 153.03 389.15 122.92 381.49C92.8095 373.83 63.2895 356.24 47.8995 327C42.6695 317.06 38.6995 302.74 38.6895 291.28C38.6895 257.47 44.2095 227.9 53.8495 202.21C56.9107 194.018 60.481 186.026 64.5395 178.28C70.4842 166.922 77.4887 156.151 85.4595 146.11L92.1595 138Z" fill="white"/>
</g>
<path d="M38.6895 426.84H468.74" stroke="#263238" stroke-linecap="round" stroke-linejoin="round"/>
<path d="M369.651 281.77V281.88C369.651 282.06 369.691 282.25 369.771 282.45C370.218 284.641 370.552 286.854 370.771 289.08C370.961 290.99 371.111 293.17 371.151 295.6C371.246 301.216 370.861 306.83 370.001 312.38C369.781 313.84 369.521 315.38 369.211 316.92C368.721 319.46 368.121 322.12 367.381 324.87C367.051 326.15 366.671 327.46 366.271 328.78L365.801 330.39C365.621 331.04 365.441 331.69 365.271 332.39C364.121 336.833 363.204 341.332 362.521 345.87C361.671 351.52 361.141 357.13 360.851 362.44C360.461 369.52 360.481 376.06 360.651 381.44C360.646 381.53 360.646 381.62 360.651 381.71C360.831 387.18 361.171 391.47 361.401 393.91C361.531 395.34 361.621 396.15 361.631 396.2" stroke="#263238" stroke-linecap="round" stroke-linejoin="round"/>
<path d="M369.68 281.91C368.183 280.58 366.379 279.642 364.43 279.18L369.68 281.91Z" fill="white"/>
<path d="M369.68 281.91C368.183 280.58 366.379 279.642 364.43 279.18" stroke="#263238" stroke-linecap="round" stroke-linejoin="round"/>
<path d="M370.801 289.109L373.461 286.699" stroke="#263238" stroke-linecap="round" stroke-linejoin="round"/>
<path d="M367.409 324.88C367.269 324.178 367.062 323.492 366.789 322.83C366.395 321.86 365.859 320.953 365.199 320.14C364.706 319.529 364.146 318.975 363.529 318.49" stroke="#263238" stroke-linecap="round" stroke-linejoin="round"/>
<path d="M365.279 332.38C365.656 331.446 366.22 330.599 366.938 329.893C367.655 329.186 368.51 328.633 369.449 328.27" stroke="#263238" stroke-linecap="round" stroke-linejoin="round"/>
<path d="M360.66 369.58C361.55 368.5 362.22 364.41 362.58 362.21C362.67 361.69 362.74 361.21 362.81 360.92" fill="white"/>
<path d="M360.66 369.58C361.55 368.5 362.22 364.41 362.58 362.21C362.67 361.69 362.74 361.21 362.81 360.92" stroke="#263238" stroke-linecap="round" stroke-linejoin="round"/>
<path d="M353.811 376.999C354.107 376.969 354.405 376.969 354.701 376.999C356.011 377.126 357.261 377.608 358.318 378.392C359.375 379.176 360.199 380.233 360.701 381.449" fill="white"/>
<path d="M353.811 376.999C354.107 376.969 354.405 376.969 354.701 376.999C356.011 377.126 357.261 377.608 358.318 378.392C359.375 379.176 360.199 380.233 360.701 381.449" stroke="#263238" stroke-linecap="round" stroke-linejoin="round"/>
<path d="M369.241 317.001C369.241 317.001 369.711 300.771 360.801 294.881" stroke="#263238" stroke-linecap="round" stroke-linejoin="round"/>
<path d="M370 351.79C371.17 355.58 363 362.79 363 362.79C363 362.79 352.21 361.44 351 357.66C349.79 353.88 352.56 347.66 357.8 346.06C363.04 344.46 368.87 348 370 351.79Z" fill="#F4FF00"/>
<path d="M379.09 305.859C378.09 309.859 370.33 312.729 370.33 312.729C370.33 312.729 365 306.499 366 302.479C367 298.459 371.31 294.039 374.93 294.969C378.55 295.899 380.13 301.839 379.09 305.859Z" fill="#F4FF00"/>
<path d="M348.099 365.93C352.949 367.81 355.919 376.39 355.919 376.39C355.919 376.39 347.919 380.7 343.079 378.81C338.239 376.92 333.079 371.6 334.479 368.05C335.879 364.5 343.249 364 348.099 365.93Z" fill="#F4FF00"/>
<path d="M358.731 318.73C359.713 319.556 360.838 320.193 362.051 320.61C362.66 320.807 363.311 320.833 363.934 320.685C364.556 320.537 365.126 320.22 365.581 319.77C366.581 318.58 366.341 316.77 365.691 315.28C364.391 312.43 359.611 307.58 355.941 308.97C350.641 311 356.371 317 358.731 318.73Z" fill="#F4FF00"/>
<path d="M369.58 326C368.88 326.86 368.14 327.95 368.53 329C368.747 329.441 369.105 329.798 369.546 330.015C369.987 330.232 370.488 330.297 370.97 330.2C371.929 329.972 372.825 329.531 373.59 328.91C375.46 327.61 379.3 324.91 376.85 322.34C374.4 319.77 371 324.19 369.58 326Z" fill="#F4FF00"/>
<path d="M353.93 289.731C353.526 289.755 353.14 289.904 352.826 290.159C352.512 290.414 352.286 290.761 352.18 291.151C352.02 292.081 352.79 292.891 353.53 293.461C355.39 294.901 360.98 298.761 362.22 295.031C363.4 291.511 356.39 289.461 353.93 289.731Z" fill="#F4FF00"/>
<path d="M364.221 277.471C363.071 277.581 361.921 277.161 360.761 277.231C359.601 277.301 358.331 278.231 358.581 279.371C358.831 280.511 360.121 280.761 361.181 280.821C363.006 280.938 364.838 280.814 366.631 280.451C367.055 280.411 367.449 280.211 367.731 279.891C368.201 279.201 367.461 278.281 366.661 278.041C365.84 277.932 365.032 277.737 364.251 277.461L364.221 277.471Z" fill="#F4FF00"/>
<path d="M375.48 285.4C376.63 285.4 377.75 284.94 378.91 284.93C380.07 284.92 381.41 285.77 381.22 286.93C381.03 288.09 379.79 288.42 378.73 288.55C376.918 288.79 375.082 288.79 373.27 288.55C372.841 288.54 372.432 288.365 372.13 288.06C371.62 287.41 372.3 286.44 373.07 286.14C373.885 285.988 374.68 285.743 375.44 285.41L375.48 285.4Z" fill="#F4FF00"/>
<path d="M374.339 370.621C374.604 370.345 374.958 370.171 375.339 370.131C375.596 370.155 375.836 370.269 376.019 370.451C376.201 370.634 376.315 370.874 376.339 371.131C376.394 371.625 376.333 372.125 376.159 372.591C375.369 375.221 366.569 394.211 364.539 390.801C363.349 388.801 366.289 382.111 367.159 380.221C368.819 376.533 371.27 373.256 374.339 370.621Z" fill="#F4FF00"/>
<path d="M370.05 283C370.05 283 369.52 278.39 370.63 278" stroke="#263238" stroke-linecap="round" stroke-linejoin="round"/>
<path d="M369.07 278.19C369.637 276.562 370.615 275.108 371.91 273.97C373.3 272.97 375.53 272.89 376.54 274.28C377.67 275.83 376.54 278.18 374.81 279.01C373.08 279.84 371.04 279.59 369.14 279.32C369.14 279.04 369.14 278.76 369.14 278.48L369.07 278.19Z" fill="#F4FF00"/>
<path d="M373.81 426.61C364.383 428.2 354.757 428.2 345.33 426.61L334.25 393.92H384.89L373.81 426.61Z" fill="white" stroke="#263238" stroke-linecap="round" stroke-linejoin="round"/>
<path d="M180.549 190.43V190.54C180.589 190.72 180.629 190.91 180.669 191.11C181.122 193.3 181.456 195.514 181.669 197.74C181.859 199.65 181.999 201.83 182.049 204.26C182.151 209.862 181.777 215.462 180.929 221C180.709 222.46 180.449 224 180.139 225.54C179.649 228.08 179.039 230.74 178.309 233.49C177.969 234.77 177.599 236.08 177.199 237.4C177.039 237.94 176.879 238.47 176.729 239.01C176.579 239.55 176.359 240.31 176.189 241.01" stroke="#263238" stroke-linecap="round" stroke-linejoin="round"/>
<path d="M180.571 190.57C179.854 189.942 179.069 189.395 178.231 188.94C177.307 188.453 176.326 188.084 175.311 187.84" fill="white"/>
<path d="M180.571 190.57C179.854 189.942 179.069 189.395 178.231 188.94C177.307 188.453 176.326 188.084 175.311 187.84" stroke="#263238" stroke-linecap="round" stroke-linejoin="round"/>
<path d="M181.689 197.769L184.359 195.359" stroke="#263238" stroke-linecap="round" stroke-linejoin="round"/>
<path d="M178.31 233.54C178.167 232.838 177.956 232.151 177.68 231.49C177.286 230.52 176.75 229.613 176.09 228.8C175.597 228.189 175.037 227.635 174.42 227.15" stroke="#263238" stroke-linecap="round" stroke-linejoin="round"/>
<path d="M176.18 241.001C176.553 240.067 177.115 239.219 177.831 238.512C178.547 237.805 179.401 237.253 180.34 236.891" stroke="#263238" stroke-linecap="round" stroke-linejoin="round"/>
<path d="M171.551 278.24C172.441 277.16 173.121 273.07 173.481 270.87C173.561 270.35 173.641 269.87 173.701 269.58" fill="white"/>
<path d="M171.551 278.24C172.441 277.16 173.121 273.07 173.481 270.87C173.561 270.35 173.641 269.87 173.701 269.58" stroke="#263238" stroke-linecap="round" stroke-linejoin="round"/>
<path d="M164.699 285.62C164.998 285.59 165.3 285.59 165.599 285.62C166.908 285.751 168.157 286.233 169.213 287.017C170.27 287.8 171.094 288.855 171.599 290.07" fill="white"/>
<path d="M164.699 285.62C164.998 285.59 165.3 285.59 165.599 285.62C166.908 285.751 168.157 286.233 169.213 287.017C170.27 287.8 171.094 288.855 171.599 290.07" stroke="#263238" stroke-linecap="round" stroke-linejoin="round"/>
<path d="M180.129 225.62C180.129 225.62 180.609 209.39 171.689 203.5" stroke="#263238" stroke-linecap="round" stroke-linejoin="round"/>
<path d="M180.94 260.45C182.1 264.24 173.94 271.45 173.94 271.45C173.94 271.45 163.14 270.1 161.94 266.32C160.74 262.54 163.51 256.32 168.74 254.72C173.97 253.12 179.77 256.67 180.94 260.45Z" fill="#F4FF00"/>
<path d="M189.999 214.519C188.999 218.519 181.239 221.389 181.239 221.389C181.239 221.389 175.849 215.159 176.889 211.139C177.929 207.119 182.189 202.699 185.809 203.629C189.429 204.559 190.999 210.499 189.999 214.519Z" fill="#F4FF00"/>
<path d="M159.001 274.59C163.851 276.48 166.831 285.05 166.831 285.05C166.831 285.05 158.831 289.36 153.981 287.47C149.131 285.58 143.981 280.26 145.391 276.71C146.801 273.16 154.141 272.7 159.001 274.59Z" fill="#F4FF00"/>
<path d="M169.63 227.39C170.608 228.215 171.73 228.853 172.94 229.27C173.549 229.467 174.2 229.493 174.823 229.345C175.445 229.197 176.015 228.88 176.47 228.43C177.47 227.24 177.23 225.43 176.58 223.94C175.28 221.09 170.51 216.24 166.83 217.63C161.54 219.64 167.26 225.64 169.63 227.39Z" fill="#F4FF00"/>
<path d="M180.47 234.669C179.78 235.529 179.04 236.669 179.42 237.669C179.637 238.11 179.995 238.467 180.436 238.684C180.877 238.901 181.378 238.966 181.86 238.869C182.82 238.643 183.716 238.202 184.48 237.579C186.35 236.289 190.19 233.579 187.74 231.009C185.29 228.439 181.94 232.849 180.47 234.669Z" fill="#F4FF00"/>
<path d="M164.82 198.391C164.417 198.416 164.031 198.566 163.718 198.821C163.404 199.075 163.177 199.422 163.07 199.811C162.91 200.741 163.68 201.551 164.43 202.121C166.29 203.561 171.87 207.421 173.12 203.691C174.29 200.171 167.29 198.121 164.82 198.391Z" fill="#F4FF00"/>
<path d="M175.109 186.131C173.959 186.241 172.809 185.821 171.659 185.891C170.509 185.961 169.219 186.891 169.479 188.031C169.739 189.171 171.009 189.421 172.079 189.481C173.901 189.598 175.73 189.474 177.519 189.111C177.946 189.071 178.343 188.871 178.629 188.551C179.089 187.861 178.349 186.941 177.559 186.701C176.734 186.592 175.923 186.398 175.139 186.121L175.109 186.131Z" fill="#F4FF00"/>
<path d="M186.37 194.06C187.53 194.06 188.65 193.6 189.8 193.59C190.95 193.58 192.3 194.43 192.12 195.59C191.94 196.75 190.68 197.08 189.62 197.21C187.808 197.45 185.972 197.45 184.16 197.21C183.731 197.2 183.322 197.025 183.02 196.72C182.51 196.07 183.19 195.1 183.97 194.8C184.784 194.645 185.579 194.4 186.34 194.07L186.37 194.06Z" fill="#F4FF00"/>
<path d="M185.23 279.279C185.496 279.004 185.85 278.831 186.23 278.789C186.485 278.819 186.722 278.934 186.904 279.115C187.085 279.297 187.2 279.534 187.23 279.789C187.282 280.284 187.217 280.784 187.04 281.249C186.26 283.879 177.45 302.869 175.43 299.459C174.23 297.459 177.17 290.769 178.04 288.879C179.703 285.19 182.158 281.913 185.23 279.279Z" fill="#F4FF00"/>
<path d="M180.94 191.68C180.94 191.68 180.41 187.07 181.53 186.68" stroke="#263238" stroke-linecap="round" stroke-linejoin="round"/>
<path d="M180 186.85C180.56 185.218 181.539 183.763 182.84 182.63C184.23 181.63 186.45 181.55 187.46 182.94C188.59 184.49 187.46 186.84 185.73 187.67C184 188.5 181.97 188.25 180.07 187.98C180.07 187.7 180.07 187.42 180.07 187.14L180 186.85Z" fill="#F4FF00"/>
<path d="M53.8496 300.97V202.16" stroke="#263238" stroke-linecap="round" stroke-linejoin="round"/>
<path d="M362.351 300.971H350.141" stroke="#263238" stroke-linecap="round" stroke-linejoin="round"/>
<path d="M458.1 300.971H433.23" stroke="#263238" stroke-linecap="round" stroke-linejoin="round"/>
<path d="M349.02 150.861H393.09V108.881" stroke="#263238" stroke-linecap="round" stroke-linejoin="round"/>
<path d="M92.1602 138.039H138.98V172.189H190.3" stroke="#263238" stroke-linecap="round" stroke-linejoin="round"/>
<path d="M64.5391 253.69V178.23" stroke="#263238" stroke-linecap="round" stroke-linejoin="round"/>
<path d="M85.4609 145.48V204.62" stroke="#263238" stroke-linecap="round" stroke-linejoin="round"/>
<path d="M106.369 145.48V197.76" stroke="#263238" stroke-linecap="round" stroke-linejoin="round"/>
<path d="M127.279 145.48V236.93" stroke="#263238" stroke-linecap="round" stroke-linejoin="round"/>
<path d="M227.449 132.511V72.3809H312.579V132.511" stroke="#263238" stroke-linecap="round" stroke-linejoin="round"/>
<path d="M233.689 102.25V79.5195H249.429" stroke="#263238" stroke-linecap="round" stroke-linejoin="round"/>
<path d="M252.891 102.25V79.5195H268.631" stroke="#263238" stroke-linecap="round" stroke-linejoin="round"/>
<path d="M272.09 102.25V79.5195H287.83" stroke="#263238" stroke-linecap="round" stroke-linejoin="round"/>
<path d="M291.289 102.25V79.5195H307.029" stroke="#263238" stroke-linecap="round" stroke-linejoin="round"/>
<path d="M233.689 132.509V109.779H249.429" stroke="#263238" stroke-linecap="round" stroke-linejoin="round"/>
<path d="M252.891 132.509V109.779H268.631" stroke="#263238" stroke-linecap="round" stroke-linejoin="round"/>
<path d="M272.09 132.509V109.779H287.83" stroke="#263238" stroke-linecap="round" stroke-linejoin="round"/>
<path d="M291.289 132.509V109.779H307.029" stroke="#263238" stroke-linecap="round" stroke-linejoin="round"/>
<path d="M399.91 114.08V189.43" stroke="#263238" stroke-linecap="round" stroke-linejoin="round"/>
<path d="M430.82 295.449H433.23" stroke="#263238" stroke-linecap="round" stroke-linejoin="round"/>
<path d="M418.439 135.721V220.081" stroke="#263238" stroke-linecap="round" stroke-linejoin="round"/>
<path d="M436.98 273.91V295.45H451.77" stroke="#263238" stroke-linecap="round" stroke-linejoin="round"/>
<path d="M436.98 163.221V220.511" stroke="#263238" stroke-linecap="round" stroke-linejoin="round"/>
<path d="M455.51 206.689V295.449H458.88" stroke="#263238" stroke-linecap="round" stroke-linejoin="round"/>
<path d="M229.69 302.779H38.6895V426.839H229.69V302.779Z" fill="white" stroke="#263238" stroke-linecap="round" stroke-linejoin="round"/>
<path d="M38.6895 302.779L134.19 364.809L229.69 302.779H38.6895Z" fill="white" stroke="#263238" stroke-linecap="round" stroke-linejoin="round"/>
<path d="M105.48 346.16L38.6895 426.84" stroke="#263238" stroke-linecap="round" stroke-linejoin="round"/>
<path d="M163.42 346.16L230.21 426.84" stroke="#263238" stroke-linecap="round" stroke-linejoin="round"/>
<path d="M331.9 144.48H287.5C286.221 144.482 284.966 144.825 283.865 145.476C282.764 146.127 281.858 147.06 281.24 148.18C280.149 150.149 278.551 151.79 276.611 152.933C274.671 154.076 272.461 154.678 270.21 154.678C267.959 154.678 265.749 154.076 263.809 152.933C261.869 151.79 260.271 150.149 259.18 148.18C258.567 147.046 257.659 146.099 256.552 145.439C255.444 144.778 254.179 144.43 252.89 144.43H208.54C207.323 144.414 206.114 144.638 204.983 145.09C203.853 145.541 202.822 146.21 201.95 147.06C201.078 147.91 200.382 148.924 199.901 150.043C199.421 151.161 199.166 152.363 199.15 153.58V404C199.184 406.458 200.192 408.802 201.953 410.517C203.713 412.232 206.082 413.179 208.54 413.15H331.9C334.359 413.179 336.729 412.233 338.491 410.518C340.253 408.802 341.263 406.459 341.3 404V153.63C341.266 151.17 340.256 148.825 338.494 147.109C336.731 145.394 334.36 144.448 331.9 144.48Z" fill="#F4FF00"/>
<path d="M345.63 150.86C345.635 149.173 345.308 147.502 344.666 145.942C344.024 144.382 343.08 142.964 341.889 141.769C340.698 140.574 339.283 139.626 337.725 138.98C336.167 138.333 334.497 138 332.81 138H207.64C205.957 137.999 204.29 138.329 202.735 138.972C201.179 139.615 199.766 140.559 198.576 141.748C197.385 142.938 196.441 144.351 195.796 145.906C195.152 147.46 194.82 149.127 194.82 150.81V414C194.82 417.397 196.17 420.656 198.572 423.058C200.974 425.46 204.233 426.81 207.63 426.81H332.81C336.208 426.81 339.468 425.461 341.872 423.059C344.276 420.657 345.627 417.398 345.63 414V150.86ZM341.3 404C341.263 406.459 340.253 408.802 338.491 410.518C336.729 412.233 334.359 413.179 331.9 413.15H208.54C206.082 413.179 203.713 412.232 201.953 410.517C200.192 408.802 199.184 406.458 199.15 404V153.63C199.166 152.413 199.421 151.21 199.901 150.092C200.382 148.973 201.078 147.96 201.95 147.11C202.822 146.26 203.853 145.591 204.983 145.14C206.114 144.688 207.323 144.464 208.54 144.48H252.91C254.198 144.48 255.462 144.828 256.568 145.488C257.673 146.149 258.58 147.096 259.19 148.23C260.281 150.199 261.879 151.84 263.819 152.983C265.759 154.126 267.969 154.728 270.22 154.728C272.471 154.728 274.681 154.126 276.621 152.983C278.561 151.84 280.159 150.199 281.25 148.23C281.866 147.109 282.773 146.174 283.874 145.523C284.975 144.872 286.231 144.529 287.51 144.53H331.91C333.127 144.514 334.336 144.738 335.467 145.19C336.598 145.641 337.628 146.31 338.5 147.16C339.372 148.01 340.068 149.023 340.549 150.142C341.029 151.26 341.284 152.463 341.3 153.68V404Z" fill="#263238"/>
<path opacity="0.2" d="M303.099 138.039L219.949 426.829L252.969 426.799L333.039 138.039H303.099Z" fill="white"/>
<path opacity="0.2" d="M290.699 138.039L202.789 426.839L207.599 426.809L293.859 138.039H290.699Z" fill="white"/>
<path d="M292.649 352.73C292.71 355.592 292.198 358.438 291.143 361.1C290.088 363.762 288.51 366.185 286.504 368.228C284.498 370.27 282.103 371.891 279.461 372.994C276.818 374.097 273.982 374.66 271.119 374.65C265.277 374.628 259.675 372.323 255.509 368.228C251.342 364.132 248.942 358.571 248.819 352.73C248.759 349.868 249.272 347.023 250.328 344.363C251.384 341.703 252.961 339.28 254.968 337.239C256.974 335.197 259.368 333.577 262.01 332.475C264.651 331.373 267.487 330.81 270.349 330.82C276.19 330.84 281.792 333.142 285.959 337.236C290.125 341.33 292.526 346.89 292.649 352.73Z" fill="white" stroke="#263238" stroke-linecap="round" stroke-linejoin="round"/>
<path d="M263.551 369.091C261.516 368.338 259.65 367.189 258.061 365.711C256.46 364.172 255.22 362.297 254.431 360.221C253.532 357.894 253.088 355.416 253.121 352.921C253.108 350.794 253.485 348.683 254.231 346.691C254.909 344.851 255.927 343.155 257.231 341.691C259.802 338.879 263.122 336.86 266.801 335.871C268.607 335.384 270.47 335.139 272.341 335.141C273.894 335.134 275.443 335.319 276.951 335.691C278.406 336.048 279.799 336.625 281.081 337.401C282.35 338.164 283.488 339.126 284.451 340.251C285.454 341.464 286.221 342.855 286.711 344.351C287.272 346.058 287.549 347.845 287.531 349.641C287.51 353.113 286.259 356.464 284.001 359.101C283.03 360.202 281.881 361.132 280.601 361.851C279.498 362.484 278.253 362.828 276.981 362.851C276.103 362.863 275.246 362.585 274.541 362.061C274.187 361.799 273.899 361.459 273.7 361.067C273.5 360.674 273.395 360.241 273.391 359.801C272.735 360.798 271.835 361.611 270.776 362.163C269.717 362.714 268.534 362.986 267.341 362.951C266.402 362.993 265.466 362.824 264.601 362.457C263.736 362.091 262.964 361.535 262.341 360.831C261.093 359.38 260.433 357.514 260.491 355.601C260.499 354.026 260.773 352.465 261.301 350.981C261.827 349.486 262.571 348.077 263.511 346.801C264.447 345.547 265.641 344.507 267.011 343.751C268.381 342.978 269.928 342.575 271.501 342.581C272.595 342.57 273.674 342.831 274.641 343.341C275.58 343.842 276.342 344.621 276.821 345.571L277.021 344.901C277.18 344.432 277.52 344.045 277.964 343.826C278.408 343.606 278.922 343.572 279.391 343.731C279.573 343.793 279.744 343.88 279.901 343.991C280.05 344.11 280.169 344.263 280.247 344.437C280.325 344.611 280.361 344.801 280.351 344.991C280.351 345.178 280.321 345.364 280.261 345.541L277.021 356.321C276.735 357.142 276.551 357.995 276.471 358.861C276.441 359.023 276.452 359.189 276.501 359.346C276.551 359.502 276.639 359.644 276.756 359.759C276.874 359.873 277.018 359.957 277.176 360.003C277.334 360.049 277.5 360.055 277.661 360.021C278.808 359.948 279.882 359.436 280.661 358.591C281.741 357.523 282.571 356.229 283.091 354.801C283.712 353.242 284.031 351.579 284.031 349.901C284.044 348.423 283.828 346.953 283.391 345.541C283.023 344.324 282.441 343.183 281.671 342.171C280.942 341.25 280.059 340.461 279.061 339.841C278.066 339.214 276.98 338.745 275.841 338.451C274.673 338.144 273.469 337.989 272.261 337.991C270.729 337.993 269.204 338.209 267.731 338.631C266.214 339.061 264.769 339.711 263.441 340.561C262.102 341.406 260.89 342.436 259.841 343.621C258.76 344.87 257.919 346.307 257.361 347.861C256.733 349.553 256.418 351.346 256.431 353.151C256.398 355.289 256.786 357.412 257.571 359.401C258.248 361.123 259.316 362.663 260.691 363.901C262.019 365.054 263.553 365.946 265.211 366.531C266.961 367.15 268.805 367.461 270.661 367.451C272.645 367.451 274.617 367.151 276.511 366.561C276.7 366.493 276.9 366.459 277.101 366.461C277.289 366.458 277.475 366.495 277.647 366.569C277.819 366.643 277.974 366.753 278.101 366.891C278.229 367.024 278.329 367.181 278.396 367.352C278.463 367.524 278.495 367.707 278.491 367.891C278.515 368.182 278.433 368.472 278.26 368.707C278.088 368.942 277.836 369.107 277.551 369.171C275.191 369.893 272.739 370.27 270.271 370.291C267.978 370.288 265.703 369.882 263.551 369.091ZM271.811 358.721C272.8 358.011 273.533 357.001 273.901 355.841L275.991 348.491L275.851 348.191C275.721 347.95 275.563 347.725 275.381 347.521C275.13 347.232 274.856 346.964 274.561 346.721C274.186 346.422 273.764 346.189 273.311 346.031C272.128 345.618 270.832 345.664 269.681 346.161C269.05 346.428 268.472 346.804 267.971 347.271C267.451 347.757 266.988 348.3 266.591 348.891C266.194 349.506 265.859 350.16 265.591 350.841C265.31 351.523 265.092 352.229 264.941 352.951C264.79 353.638 264.713 354.338 264.711 355.041C264.702 355.492 264.729 355.944 264.791 356.391C264.837 356.789 264.924 357.181 265.051 357.561C265.161 357.915 265.319 358.251 265.521 358.561C265.702 358.84 265.933 359.084 266.201 359.281C266.487 359.488 266.809 359.641 267.151 359.731C267.55 359.848 267.965 359.902 268.381 359.891C269.632 359.907 270.853 359.505 271.851 358.751L271.811 358.721Z" fill="#F4FF00" stroke="#263238" stroke-linecap="round" stroke-linejoin="round"/>
<path d="M292.159 277.6C292.219 280.462 291.706 283.306 290.65 285.967C289.594 288.627 288.017 291.05 286.01 293.091C284.004 295.133 281.61 296.753 278.968 297.855C276.327 298.957 273.491 299.52 270.629 299.51C264.788 299.49 259.186 297.188 255.019 293.094C250.853 289 248.452 283.44 248.329 277.6C248.266 274.737 248.777 271.891 249.832 269.228C250.887 266.566 252.464 264.142 254.471 262.099C256.478 260.056 258.873 258.436 261.516 257.333C264.159 256.231 266.996 255.669 269.859 255.68C275.701 255.702 281.303 258.007 285.47 262.102C289.636 266.198 292.037 271.759 292.159 277.6Z" fill="white" stroke="#263238" stroke-linecap="round" stroke-linejoin="round"/>
<path d="M284.001 275.6C277.131 271.1 263.661 271.1 257.111 275.6C255.913 275.825 254.836 276.472 254.076 277.425C253.316 278.378 252.924 279.572 252.971 280.79C253.071 283.7 265.161 283.7 265.061 280.79C265.002 279.573 264.537 278.412 263.741 277.49C268.275 276.51 272.967 276.51 277.501 277.49C276.763 278.428 276.381 279.597 276.421 280.79C276.521 283.7 288.611 283.7 288.501 280.79C288.444 279.545 287.969 278.355 287.152 277.413C286.336 276.472 285.226 275.833 284.001 275.6Z" fill="#F4FF00" stroke="#263238" stroke-linecap="round" stroke-linejoin="round"/>
<path d="M292.16 204.619C292.28 210.009 289.34 214.829 284.62 218.039V231.129L275.23 221.729C273.712 222 272.172 222.134 270.63 222.129C258.53 222.129 248.54 214.289 248.33 204.619C248.12 194.949 257.75 187.119 269.86 187.119C281.97 187.119 292 194.999 292.16 204.619Z" fill="white" stroke="#263238" stroke-linecap="round" stroke-linejoin="round"/>
<path d="M260.91 204.619C260.912 205.181 260.747 205.731 260.436 206.2C260.125 206.668 259.683 207.033 259.164 207.25C258.645 207.466 258.074 207.524 257.522 207.416C256.971 207.307 256.464 207.038 256.065 206.641C255.667 206.244 255.396 205.738 255.285 205.187C255.175 204.636 255.231 204.064 255.445 203.545C255.66 203.025 256.024 202.581 256.491 202.268C256.958 201.956 257.508 201.789 258.07 201.789C258.822 201.789 259.542 202.087 260.075 202.617C260.607 203.148 260.907 203.868 260.91 204.619Z" fill="#F4FF00" stroke="#263238" stroke-linecap="round" stroke-linejoin="round"/>
<path d="M273.061 204.619C273.063 205.181 272.898 205.731 272.587 206.2C272.276 206.668 271.834 207.033 271.315 207.25C270.796 207.466 270.225 207.524 269.673 207.416C269.122 207.307 268.615 207.038 268.216 206.641C267.818 206.244 267.547 205.738 267.436 205.187C267.326 204.636 267.382 204.064 267.596 203.545C267.811 203.025 268.175 202.581 268.642 202.268C269.109 201.956 269.659 201.789 270.221 201.789C270.973 201.789 271.693 202.087 272.226 202.617C272.758 203.148 273.058 203.868 273.061 204.619Z" fill="#F4FF00" stroke="#263238" stroke-linecap="round" stroke-linejoin="round"/>
<path d="M285.209 204.619C285.211 205.181 285.046 205.731 284.735 206.2C284.424 206.668 283.982 207.033 283.463 207.25C282.944 207.466 282.373 207.524 281.821 207.416C281.27 207.307 280.763 207.038 280.364 206.641C279.966 206.244 279.695 205.738 279.584 205.187C279.474 204.636 279.53 204.064 279.744 203.545C279.959 203.025 280.323 202.581 280.79 202.268C281.257 201.956 281.807 201.789 282.369 201.789C283.12 201.789 283.841 202.087 284.374 202.617C284.906 203.148 285.206 203.868 285.209 204.619Z" fill="#F4FF00" stroke="#263238" stroke-linecap="round" stroke-linejoin="round"/>
<path d="M147.8 244.531C147.445 245.191 146.933 245.754 146.31 246.171C141.697 249.851 136.977 253.381 132.15 256.761C130.38 258.001 128.54 259.281 126.83 260.671C116.55 267.551 122.83 269.231 116.55 283.791C115.07 287.271 115.34 304.321 115.34 304.321H114.83C113.626 303.133 112.347 302.024 111 301.001C110.814 300.876 110.62 300.762 110.42 300.661C110.232 300.564 110.029 300.5 109.82 300.471C108.82 300.411 105.01 300.871 101.16 300.621L100.16 300.541C99.5999 300.481 99.0499 300.411 98.4999 300.311C97.9499 300.211 97.4199 300.101 96.9099 299.961C93.2563 298.789 89.6736 297.407 86.1799 295.821L84.4399 295.071L83.5799 294.701L82.7999 294.361L82.2399 294.121L81.6999 293.891C80.7899 293.511 79.9399 293.161 79.1599 292.891C78.8024 292.763 78.4386 292.653 78.0699 292.561C78.0699 293.381 77.9399 294.221 77.8299 295.041C77.3499 298.951 76.2799 302.561 74.3699 303.041C74.3306 303.051 74.2893 303.051 74.2499 303.041C74.0817 303.072 73.9111 303.089 73.7399 303.091H73.5899C73.1668 303.082 72.748 303.005 72.3499 302.861C70.6165 302.121 69.1999 300.793 68.3499 299.111C67.9701 298.402 67.758 297.615 67.7299 296.811C67.7299 293.901 66.9199 276.731 66.9199 271.731C66.9199 266.731 67.9199 257.981 70.4099 254.731C71.3831 253.353 72.612 252.175 74.0299 251.261C75.8544 249.74 77.947 248.573 80.1999 247.821C82.8599 246.951 88.8099 244.731 92.9599 243.161L86.6899 245.581C88.2799 248.301 91.6899 252.581 97.8399 253.131C103.62 253.621 107.2 248.391 109.03 244.571C109.19 244.631 119.25 242.721 121.58 242.831C129.17 243.161 135.36 239.051 138.16 237.421C139.005 236.916 139.952 236.609 140.932 236.522C141.912 236.435 142.899 236.571 143.82 236.919C144.74 237.267 145.569 237.819 146.247 238.532C146.924 239.246 147.431 240.104 147.73 241.041V241.131C148.168 242.218 148.192 243.427 147.8 244.531Z" fill="#F4FF00" stroke="#263238" stroke-linecap="round" stroke-linejoin="round"/>
<path d="M108.921 244.631L108.461 244.471" stroke="#263238" stroke-linecap="round" stroke-linejoin="round"/>
<path d="M117.45 308.721C117.455 308.761 117.455 308.801 117.45 308.841C117.409 308.938 117.348 309.024 117.269 309.093C117.191 309.163 117.098 309.214 116.997 309.243C116.896 309.272 116.79 309.277 116.687 309.26C116.584 309.242 116.486 309.202 116.4 309.141C115.94 308.881 115.23 307.211 115.23 307.211L114.44 306.391L113.92 305.841C114 306.041 114.63 307.571 114.3 308.281C114.283 308.33 114.256 308.374 114.22 308.411C113.999 308.706 113.712 308.946 113.382 309.111C113.053 309.276 112.689 309.361 112.32 309.361C111.89 309.361 110.63 309.511 109.53 309.581H109.41C109.077 309.599 108.743 309.599 108.41 309.581C107.522 309.467 106.666 309.178 105.89 308.731C104.131 308.472 102.398 308.061 100.71 307.501L100.41 307.341L100.14 307.181C99.963 307.074 99.7985 306.946 99.6505 306.801C99.0411 306.293 98.5236 305.684 98.1205 305.001C98.1205 305.001 94.0605 304.831 88.6105 304.411C86.6105 304.261 84.4505 304.071 82.2105 303.851C78.7705 303.501 75.9305 303.521 73.7005 303.211H73.5405C73.1005 303.151 72.6905 303.071 72.3005 302.981C71.3488 302.795 70.4687 302.344 69.7612 301.681C69.0537 301.018 68.5475 300.169 68.3005 299.231C68.1696 298.787 68.0627 298.336 67.9805 297.881L69.7205 294.881C70.6274 294.153 71.6388 293.567 72.7205 293.141C74.3988 292.439 76.252 292.268 78.0305 292.651C78.3991 292.742 78.7629 292.853 79.1205 292.981C79.9005 293.281 80.7505 293.631 81.6605 293.981L82.2105 294.211L82.7705 294.451L83.5505 294.791C88.0005 296.631 93.3105 299.001 96.8605 300.001C97.9267 300.28 99.0135 300.474 100.11 300.581L101.11 300.661C104.96 300.911 108.76 300.451 109.77 300.511C110.78 300.571 113.25 302.921 114.83 304.371C115.26 304.771 115.64 305.101 115.9 305.301L116.02 305.401L116.11 305.481C116.683 306.069 117.084 306.802 117.27 307.601C117.349 307.869 117.402 308.143 117.43 308.421C117.448 308.52 117.455 308.62 117.45 308.721Z" fill="white" stroke="#263238" stroke-linecap="round" stroke-linejoin="round"/>
<path d="M117.45 308.721C117.455 308.761 117.455 308.801 117.45 308.841C117.408 308.937 117.346 309.022 117.267 309.091C117.188 309.159 117.095 309.209 116.994 309.237C116.894 309.265 116.788 309.27 116.685 309.251C116.582 309.233 116.485 309.192 116.4 309.131C115.906 308.557 115.51 307.905 115.23 307.201L114.44 306.391L113.92 305.851C113.99 306.011 114.64 307.571 114.31 308.291C114.293 308.34 114.266 308.384 114.23 308.421C114.119 308.569 113.992 308.703 113.85 308.821C113.419 309.167 112.883 309.358 112.33 309.361C111.89 309.361 110.64 309.501 109.55 309.581H109.41C109.077 309.6 108.743 309.6 108.41 309.581C107.528 309.463 106.676 309.178 105.9 308.741C104.141 308.478 102.408 308.063 100.72 307.501L100.43 307.361L100.16 307.201C99.9876 307.087 99.8238 306.96 99.6705 306.821C99.0522 306.309 98.5277 305.693 98.1205 305.001C98.1205 305.001 94.1805 304.831 88.8405 304.421C86.8405 304.271 84.5305 304.071 82.2105 303.841C79.0505 303.531 76.4405 303.441 74.3305 303.111L73.6805 302.991L72.9305 302.821C72.7576 301.596 72.8846 300.347 73.3005 299.181C73.6881 298.198 74.2893 297.312 75.0606 296.59C75.8319 295.867 76.754 295.324 77.7605 295.001C79.0096 294.542 80.2894 294.171 81.5905 293.891L82.1305 294.121L82.6905 294.361L83.4705 294.701C88.0005 296.651 93.2505 299.011 96.8105 299.981C97.876 300.262 98.9631 300.452 100.06 300.551L101.06 300.631C104.91 300.891 108.71 300.431 109.72 300.491C110.73 300.551 113.19 302.891 114.72 304.341C115.067 304.673 115.431 304.986 115.81 305.281L115.93 305.371L116.02 305.451C116.604 306.031 117.007 306.767 117.18 307.571C117.259 307.839 117.312 308.113 117.34 308.391C117.391 308.496 117.428 308.607 117.45 308.721Z" fill="white" stroke="#263238" stroke-linecap="round" stroke-linejoin="round"/>
<path d="M105.48 306.061C105.48 306.061 107.75 307.241 108.65 307.651C109.55 308.061 109.47 309.711 109.47 309.711" fill="white"/>
<path d="M105.48 306.061C105.48 306.061 107.75 307.241 108.65 307.651C109.55 308.061 109.47 309.711 109.47 309.711" stroke="#263238" stroke-linecap="round" stroke-linejoin="round"/>
<path d="M107.91 304.461C109.338 305.48 110.713 306.572 112.03 307.731C112.222 307.957 112.348 308.232 112.392 308.525C112.436 308.819 112.397 309.119 112.28 309.391" fill="white"/>
<path d="M107.91 304.461C109.338 305.48 110.713 306.572 112.03 307.731C112.222 307.957 112.348 308.232 112.392 308.525C112.436 308.819 112.397 309.119 112.28 309.391" stroke="#263238" stroke-linecap="round" stroke-linejoin="round"/>
<path d="M113.891 305.83C112.708 304.562 111.456 303.36 110.141 302.23L113.891 305.83Z" fill="white"/>
<path d="M113.891 305.83C112.708 304.562 111.456 303.36 110.141 302.23" stroke="#263238" stroke-linecap="round" stroke-linejoin="round"/>
<path d="M108.91 244.65C107.1 248.46 103.51 253.65 97.7301 253.2C91.6101 252.68 88.1701 248.37 86.5801 245.64C88.7801 244.8 91.0101 243.94 92.8401 243.22C92.8401 241.36 92.7801 239.13 92.5801 236.92C92.5801 236.44 92.4801 235.92 92.4301 235.47C92.3801 235.02 92.3201 234.7 92.2601 234.33H103.89C103.89 234.33 103.82 234.79 103.73 235.56C103.66 236.25 103.57 237.17 103.5 238.21C103.41 239.59 103.35 241.21 103.39 242.74C103.95 242.93 104.52 243.14 105.09 243.36L106.19 243.74C106.63 243.9 107.06 244.04 107.52 244.19L108.52 244.49C108.653 244.535 108.784 244.588 108.91 244.65Z" fill="white" stroke="#263238" stroke-linecap="round" stroke-linejoin="round"/>
<path d="M92.4297 235.43C92.4297 235.43 94.5997 241.07 97.7497 242.03C100.9 242.99 103.75 235.56 103.75 235.56C103.75 235.56 99.3097 240.3 97.6597 239.56C96.0097 238.82 92.4497 235.47 92.4497 235.47" fill="#263238"/>
<path d="M90.5606 204.281C87.6218 206.927 85.2916 210.178 83.7306 213.811C82.3006 216.811 81.0906 220.261 82.1906 223.401C82.8489 224.96 83.7801 226.389 84.9406 227.621C87.1006 230.211 90.1306 237.441 92.2906 240.031C92.4306 235.421 88.5706 227.971 88.9806 224.101C89.4772 221.111 90.4602 218.223 91.8906 215.551C93.3453 212.047 95.2478 208.746 97.5506 205.731C98.8606 204.151 103.071 201.341 98.8206 201.001C96.0006 200.771 92.6906 202.531 90.5606 204.281Z" fill="#263238" stroke="#263238" stroke-linecap="round" stroke-linejoin="round"/>
<path d="M87.8404 220C87.8404 220 86.3504 217.11 84.7804 219.85C83.6504 221.85 85.2804 225 85.9804 226.17C86.2127 226.503 86.5273 226.77 86.8936 226.945C87.2599 227.121 87.6653 227.198 88.0704 227.17L87.8404 220Z" fill="white" stroke="#263238" stroke-linecap="round" stroke-linejoin="round"/>
<path d="M107.419 230.44C106.463 232.329 105.218 234.056 103.729 235.56L102.829 236.49C100.969 238.33 98.9593 239.79 97.6393 239.49C96.4893 239.26 94.9893 238.08 93.5193 236.57C93.1493 236.2 92.7893 235.8 92.4293 235.4C90.8288 233.649 89.4547 231.704 88.3393 229.61C88.0295 228.825 87.8309 228 87.7493 227.16C87.497 224.655 87.4101 222.136 87.4893 219.62C87.4893 218.73 87.4893 218.02 87.4893 217.62C87.4893 215.88 94.0093 209.83 94.0093 209.83C94.185 209.766 94.3738 209.745 94.5593 209.77C95.6807 209.974 96.7614 210.359 97.7593 210.91C101.709 212.83 107.219 216.64 107.619 218.09C108.229 220.2 107.999 228.56 107.419 230.44Z" fill="white" stroke="#263238" stroke-linecap="round" stroke-linejoin="round"/>
<path d="M94.4698 222.421C94.4698 223.121 94.2098 223.691 93.9198 223.691C93.6298 223.691 93.3398 223.141 93.3398 222.421C93.3398 221.701 93.5998 221.131 93.9198 221.131C94.2398 221.131 94.4698 221.721 94.4698 222.421Z" fill="#263238"/>
<path d="M101.92 221.141C102.24 221.141 102.5 221.711 102.5 222.421C102.5 223.131 102.24 223.691 101.92 223.691C101.6 223.691 101.34 223.121 101.34 222.421C101.34 221.721 101.6 221.141 101.92 221.141Z" fill="#263238"/>
<path d="M90.75 219.269C90.75 219.269 91.75 217.269 95.29 217.879" stroke="#263238" stroke-linecap="round" stroke-linejoin="round"/>
<path d="M105.21 219.269C105.21 219.269 104.21 217.269 100.67 217.879" stroke="#263238" stroke-linecap="round" stroke-linejoin="round"/>
<path d="M98.6602 227.31C99.0199 227.287 99.3628 227.15 99.6383 226.918C99.9138 226.685 100.107 226.371 100.19 226.02C100.19 226.02 98.2501 223.02 98.8401 220.08" stroke="#263238" stroke-linecap="round" stroke-linejoin="round"/>
<path d="M86.5793 213C85.7736 214.093 85.1645 215.318 84.7793 216.62" stroke="white" stroke-linecap="round" stroke-linejoin="round"/>
<path d="M94.9391 205C94.9391 205 93.8291 206.84 88.9391 210.59C88.624 210.818 88.3234 211.065 88.0391 211.33" stroke="white" stroke-linecap="round" stroke-linejoin="round"/>
<path d="M79.2598 263.631C78.5931 273.138 77.9265 282.651 77.2598 292.171V291.441" fill="#263238"/>
<path d="M79.2598 263.631C78.5931 273.138 77.9265 282.651 77.2598 292.171V291.441" stroke="#263238" stroke-linecap="round" stroke-linejoin="round"/>
<path d="M142.429 232.24C143.333 231.887 144.31 231.76 145.274 231.872C146.238 231.984 147.16 232.33 147.959 232.88C149.554 234.01 150.715 235.65 151.249 237.53C151.887 239.402 151.823 241.442 151.069 243.27C150.679 244.171 150.052 244.95 149.254 245.522C148.456 246.095 147.518 246.439 146.539 246.52C145.08 246.501 143.671 245.99 142.539 245.07C138.799 242.27 136.929 234.61 142.429 232.24Z" fill="white" stroke="#263238" stroke-linecap="round" stroke-linejoin="round"/>
<path d="M150.71 200.31C150.71 200.43 150.71 201.22 150.78 201.36C151.13 202.9 151.87 206.75 150 207.53C150.71 210.06 152.45 226.59 152.22 235.02C152.16 237.54 151.72 240.53 149.46 241.61C145.65 243.42 142.03 239.01 142.46 235.56C143.13 230.85 142.9 226.05 143.46 221.29C144.07 216.35 145.19 211.29 143.96 206.46C143.66 206.13 141.74 202.32 141.11 201.27C140.827 200.821 140.605 200.337 140.45 199.83C140.204 198.104 140.084 196.363 140.09 194.62C140.66 193.54 141.4 194.54 141.79 195.25C142.108 196.116 142.218 197.044 142.11 197.96C142.073 198.184 142.104 198.414 142.2 198.62C142.284 198.738 142.398 198.831 142.529 198.891C142.661 198.951 142.806 198.974 142.95 198.96C144.18 198.78 144.13 197.75 144.11 196.96C144.11 194.31 144.11 191.66 144.11 189.03C144.11 188.59 144.25 187.4 144.67 187.36C145.09 187.32 145.72 187.66 145.78 189.07C145.85 190.66 145.85 195.56 145.85 195.56C145.89 195.6 145.939 195.63 145.993 195.645C146.048 195.661 146.105 195.663 146.16 195.65C146.26 195.65 146.3 195.47 146.34 195.37C146.93 192.91 147.53 190.45 148.12 187.99C148.19 187.7 148.62 187.1 148.93 187.1C149.67 187.1 149.69 187.96 149.73 188.21C149.99 189.53 148.14 194.97 147.83 196.21C147.83 196.43 147.83 196.76 148.06 196.7L150.96 190.85C151.094 190.508 151.306 190.202 151.579 189.956C151.851 189.709 152.177 189.529 152.53 189.43C152.579 189.415 152.631 189.415 152.68 189.43C152.732 189.46 152.774 189.506 152.8 189.56C153.08 190.06 152.8 190.75 152.64 191.3C152.48 191.85 150.31 195.89 149.54 197.52C149.43 197.75 149.25 198.27 149.47 198.52C149.69 198.77 150.09 198.29 150.25 197.96C150.74 196.96 151.2 196.02 151.65 195.04C151.79 194.75 152 194.34 152.33 194.41C154.28 194.83 151.51 198.92 150.71 200.31Z" fill="white" stroke="#263238" stroke-linecap="round" stroke-linejoin="round"/>
<path d="M145.33 199.449C146.337 200.246 147.211 201.198 147.92 202.269C148.27 202.807 148.504 203.412 148.607 204.046C148.71 204.679 148.681 205.327 148.52 205.949C148.472 206.111 148.408 206.269 148.33 206.419" fill="white"/>
<path d="M145.33 199.449C146.337 200.246 147.211 201.198 147.92 202.269C148.27 202.807 148.504 203.412 148.607 204.046C148.71 204.679 148.681 205.327 148.52 205.949C148.472 206.111 148.408 206.269 148.33 206.419" stroke="#263238" stroke-linecap="round" stroke-linejoin="round"/>
<path d="M117.16 261.92C118.218 264.054 118.93 266.342 119.27 268.7C119.56 271.06 119.65 272.91 118.04 279.54" stroke="#263238" stroke-linecap="round" stroke-linejoin="round"/>
<path d="M94.5893 208.33C94.4524 208.739 94.4181 209.175 94.4893 209.6C94.6791 210.135 95.028 210.599 95.4893 210.93C98.6855 213.731 102.26 216.067 106.109 217.87C106.592 217.996 107.01 218.297 107.282 218.715C107.554 219.133 107.66 219.638 107.579 220.13V227.86C107.628 228.657 107.551 229.457 107.349 230.23C106.789 232.03 105.549 233.48 104.649 235.14C103.734 236.714 103.27 238.51 103.309 240.33C103.059 238.42 109.739 234.72 111.549 227.2C111.799 226.14 116.999 219.83 113.879 212.42C110.879 205.31 106.159 202.25 104.569 201.88C103.49 201.565 102.351 201.511 101.247 201.723C100.142 201.935 99.1048 202.407 98.2193 203.1C96.4719 204.401 95.1973 206.238 94.5893 208.33Z" fill="#263238" stroke="#263238" stroke-linecap="round" stroke-linejoin="round"/>
<path d="M101.141 229.999C100.571 230.119 99.9909 230.229 99.4109 230.299C97.4109 230.549 95.2709 230.239 93.9609 228.779C94.0609 230.089 94.9609 235.039 97.6509 235.179C100.341 235.319 101.141 229.999 101.141 229.999Z" stroke="#263238" stroke-linecap="round" stroke-linejoin="round"/>
<path d="M98.5391 205.311C99.6925 207.929 101.53 210.189 103.859 211.851C105.549 213.061 107.479 213.931 109.029 215.311C111.029 217.141 112.339 220.041 111.569 222.671" stroke="white" stroke-linecap="round" stroke-linejoin="round"/>
<path d="M119.44 245.711C117.514 247.257 116.245 249.476 115.89 251.921C115.545 254.033 115.805 256.2 116.64 258.171" stroke="#263238" stroke-linecap="round" stroke-linejoin="round"/>
<path d="M82.1903 262.211C82.0303 264.831 80.4003 267.101 78.8203 269.211L82.1903 262.211Z" fill="#263238"/>
<path d="M82.1903 262.211C82.0303 264.831 80.4003 267.101 78.8203 269.211" stroke="#263238" stroke-linecap="round" stroke-linejoin="round"/>
<path d="M78.2891 282.24C79.0834 283.57 80.1465 284.719 81.4104 285.615C82.6743 286.51 84.1112 287.132 85.6291 287.44" stroke="#263238" stroke-linecap="round" stroke-linejoin="round"/>
<path d="M116.551 283.801C116.551 283.801 113.861 287.801 104.721 288.641" stroke="#263238" stroke-linecap="round" stroke-linejoin="round"/>
<path d="M384.301 248.75C384.301 248.75 349.451 259.55 342.891 251.02L343.781 207.51H349.071L355.291 238.16L383.851 232.93C383.851 232.93 387.511 244.27 384.301 248.75Z" fill="white"/>
<path d="M369.62 250.27C367.622 251.064 365.714 252.07 363.93 253.27C366.29 254.02 368.81 253.07 371.17 252.32C374.287 251.363 377.464 250.615 380.68 250.08C380.83 249.19 379.68 247.16 379.23 246.37C378.41 244.99 378.23 244.87 376.85 245.55C374.34 246.81 372.2 249 369.62 250.27Z" fill="#F4FF00"/>
<path d="M384.301 248.75C384.301 248.75 349.451 259.55 342.891 251.02L343.781 207.51H349.071L355.291 238.16L383.851 232.93C383.851 232.93 387.511 244.27 384.301 248.75Z" stroke="#263238" stroke-linecap="round" stroke-linejoin="round"/>
<path d="M380.881 249.89L387.001 287.57C386.841 311.99 398.491 308.32 406.581 308.25C415.931 308.17 430.121 298.9 423.161 284.47L425.841 232.24L409.551 231C404.181 230.58 382.181 231.27 380.431 234.08C375.891 241.37 380.881 249.89 380.881 249.89Z" fill="white"/>
<path d="M381.839 253C385.474 266.75 394.19 278.608 406.229 286.18C404.926 285.974 403.653 285.608 402.439 285.09C401.218 284.564 399.85 284.49 398.579 284.88C398.272 284.991 397.99 285.161 397.749 285.38C397.508 285.6 397.313 285.865 397.174 286.161C397.036 286.456 396.957 286.776 396.942 287.102C396.928 287.428 396.978 287.753 397.089 288.06C397.381 288.529 397.778 288.922 398.249 289.21C400.234 290.606 402.405 291.716 404.699 292.51C402.688 292.304 400.655 292.459 398.699 292.97C398.339 294.71 400.279 295.97 401.809 296.82C404.25 298.259 406.34 300.223 407.929 302.57C402.559 302.582 397.195 302.889 391.859 303.49C391.155 303.648 390.42 303.578 389.759 303.29C389.067 302.775 388.601 302.011 388.459 301.16C387.27 297 386.578 292.713 386.399 288.39C386.299 285.96 386.399 283.51 386.079 281.1C385.821 279.2 385.467 277.314 385.019 275.45C383.466 268.237 382.276 260.967 381.449 253.64C381.079 253.67 381.839 253 381.839 253Z" fill="#F4FF00"/>
<path d="M423.149 250C421.8 249.567 420.542 248.889 419.439 248C419.749 249.5 421.989 252.09 423.299 252.89C423.569 253.06 423.959 253.2 424.199 252.97C424.439 252.74 424.599 252.15 424.839 251.97L423.149 250Z" fill="#F4FF00"/>
<path d="M380.881 249.89L387.001 287.57C386.841 311.99 398.491 308.32 406.581 308.25C415.931 308.17 430.121 298.9 423.161 284.47L425.841 232.24L409.551 231C404.181 230.58 382.181 231.27 380.431 234.08C375.891 241.37 380.881 249.89 380.881 249.89Z" stroke="#263238" stroke-linecap="round" stroke-linejoin="round"/>
<path d="M392.791 230.231C391.038 233.441 390.194 237.068 390.351 240.721C390.349 241.04 390.41 241.356 390.531 241.651C390.981 242.541 392.211 242.541 393.201 242.651C397.051 243.141 399.441 247.201 403.071 248.561C403.198 248.64 403.34 248.692 403.488 248.714C403.636 248.736 403.786 248.729 403.931 248.691C404.076 248.654 404.212 248.588 404.33 248.497C404.449 248.405 404.548 248.291 404.621 248.161C406.201 246.161 406.761 243.351 408.921 242.061C409.861 241.501 411.051 241.271 411.701 240.391C412.441 239.391 412.111 237.951 411.751 236.731C411.161 234.731 410.501 232.651 408.971 231.261C407.341 229.989 405.339 229.286 403.271 229.261C400.245 229.013 397.199 229.298 394.271 230.101C394.311 230.481 392.791 230.231 392.791 230.231Z" fill="#F4FF00" stroke="#263238" stroke-linecap="round" stroke-linejoin="round"/>
<path d="M441.19 255.8C438.746 252.241 436.945 248.281 435.87 244.1C435.478 242.005 434.868 239.958 434.05 237.99C433.278 236.47 432.163 235.151 430.794 234.136C429.425 233.12 427.839 232.437 426.16 232.14C425.444 231.982 424.699 232.017 424 232.24C422.55 232.79 421.91 234.46 421.62 235.98C420.992 239.245 421.178 242.614 422.16 245.79C422.83 247.95 430.88 263.61 436.16 269.68C435.7 266.62 439.22 256.39 441.19 255.8Z" fill="white"/>
<path d="M425.399 252.731L430.339 262.041C431.049 263.371 431.849 264.791 433.229 265.371C432.361 262.295 431.867 259.125 431.759 255.931C431.813 254.326 431.628 252.722 431.209 251.171C431.009 251.341 430.799 250.621 430.799 250.621C430.579 251.031 429.999 251.041 429.549 250.951C426.319 250.271 424.099 247.391 422.179 244.711C421.929 245.609 421.889 246.552 422.063 247.468C422.236 248.383 422.618 249.247 423.179 249.991C423.179 249.991 425.239 252.421 425.399 252.731Z" fill="#F4FF00"/>
<path d="M441.19 255.8C438.746 252.241 436.945 248.281 435.87 244.1C435.478 242.005 434.868 239.958 434.05 237.99C433.278 236.47 432.163 235.151 430.794 234.136C429.425 233.12 427.839 232.437 426.16 232.14C425.444 231.982 424.699 232.017 424 232.24C422.55 232.79 421.91 234.46 421.62 235.98C420.992 239.245 421.178 242.614 422.16 245.79C422.83 247.95 430.88 263.61 436.16 269.68C435.7 266.62 439.22 256.39 441.19 255.8Z" stroke="#263238" stroke-linecap="round" stroke-linejoin="round"/>
<path d="M434.25 267C428.87 256.69 431.47 232.93 431.31 229.11L438.41 228.73C439.12 228.73 442.41 248.99 444.65 257.4C446.65 265.06 444.73 272.81 441.19 272.81C438.25 272.81 435.38 269.17 434.25 267Z" fill="white" stroke="#263238" stroke-linecap="round" stroke-linejoin="round"/>
<path d="M370.141 240.23C375.141 232.93 384.951 232.35 384.951 232.35" stroke="#263238" stroke-linecap="round" stroke-linejoin="round"/>
<path d="M350.85 244.32C352.362 242.931 353.547 241.223 354.32 239.32L350.85 244.32Z" fill="white"/>
<path d="M350.85 244.32C352.362 242.931 353.547 241.223 354.32 239.32" stroke="#263238" stroke-linecap="round" stroke-linejoin="round"/>
<path d="M388 278.82C390.85 283.49 409.31 288.48 416.67 287.41" stroke="#263238" stroke-linecap="round" stroke-linejoin="round"/>
<path d="M393.221 292.001C398.538 292.916 403.989 292.708 409.221 291.391" stroke="#263238" stroke-linecap="round" stroke-linejoin="round"/>
<path d="M417.711 246.689L421.231 251.459C421.711 252.109 422.381 252.839 423.171 252.659" stroke="#263238" stroke-linecap="round" stroke-linejoin="round"/>
<path d="M443.871 427.629C443.561 428.899 443.461 430.409 444.371 431.359C445.281 432.309 446.601 432.289 447.831 432.269L452.061 432.189C453.692 432.27 455.323 432.015 456.851 431.439C457.615 431.142 458.27 430.617 458.726 429.936C459.182 429.254 459.418 428.449 459.401 427.629C459.297 426.995 459.094 426.381 458.801 425.809C458.421 424.989 458.041 424.159 457.671 423.339C453.001 413.049 445.871 419.309 443.871 427.629Z" fill="white" stroke="#263238" stroke-linecap="round" stroke-linejoin="round"/>
<path d="M437.91 415.5C438.058 420.223 437.662 424.947 436.73 429.58C436.51 430.63 436.73 432.22 437.73 432.12C438.122 432.06 438.478 431.857 438.73 431.55C442.405 427.925 445.034 423.375 446.34 418.38C446.536 417.861 446.628 417.308 446.609 416.754C446.59 416.2 446.461 415.654 446.23 415.15C445.956 414.745 445.618 414.387 445.23 414.09C441.84 411.38 437.6 408.69 437.91 415.5Z" fill="white" stroke="#263238" stroke-linecap="round" stroke-linejoin="round"/>
<path d="M426.299 294.631C426.299 294.631 431.569 303.791 432.699 305.921C433.829 308.051 457.699 339.421 462.279 362.261C463.139 366.601 445.529 415.141 445.529 415.141L441.529 412.881C441.529 412.881 444.309 368.611 443.629 364.931C442.949 361.251 425.379 334.091 425.379 334.091C425.379 334.091 415.569 326.881 411.529 318.501L426.299 294.631Z" fill="#263238"/>
<path d="M426.869 317.579C426.869 317.579 423.869 324.259 423.869 325.219C423.869 326.179 440.369 378.319 445.219 390.379C448.286 398.146 450.989 406.092 453.329 414.219C453.329 414.219 455.209 416.689 453.789 419.219C452.369 421.749 446.719 423.409 445.559 421.149C444.399 418.889 432.969 407.149 428.149 395.469C423.329 383.789 416.549 364.269 412.689 356.999C407.633 347.709 403.145 338.122 399.249 328.289C394.399 315.879 389.439 302.499 389.439 302.499C391.454 302.681 393.477 302.737 395.499 302.669C400.259 302.507 404.973 301.672 409.499 300.189C420.039 296.649 424.599 289.869 424.599 289.869C424.599 289.869 427.209 296.939 427.889 298.309L426.869 317.579Z" fill="#263238"/>
<path d="M460.519 366.73C459.486 368.5 458.097 370.036 456.439 371.24" stroke="white" stroke-linecap="round" stroke-linejoin="round"/>
<path d="M461.81 363.82C461.66 364.307 461.479 364.785 461.27 365.25" stroke="white" stroke-linecap="round" stroke-linejoin="round"/>
<path d="M417.34 302C420 306.58 422.49 313.17 422.09 318.45C421.876 319.409 421.54 320.336 421.09 321.21" stroke="white" stroke-linecap="round" stroke-linejoin="round"/>
<path d="M401.239 307.09C401.529 309.64 401.919 313.88 401.359 316.38C400.886 318.937 399.419 321.202 397.279 322.68" stroke="white" stroke-linecap="round" stroke-linejoin="round"/>
<path d="M423.92 297.439C424.501 298.163 424.973 298.968 425.32 299.829C425.997 301.066 426.928 302.145 428.052 302.996C429.175 303.848 430.466 304.452 431.84 304.769" stroke="white" stroke-linecap="round" stroke-linejoin="round"/>
<path d="M415.43 307.66C418.96 315.38 421.66 323.12 427.14 336.24" stroke="white" stroke-linecap="round" stroke-linejoin="round"/>
<path d="M413.551 303.711C413.851 304.311 414.141 304.911 414.431 305.511" stroke="white" stroke-linecap="round" stroke-linejoin="round"/>
<path d="M442.93 362.77C444.548 365.888 446.606 368.757 449.04 371.29" stroke="white" stroke-linecap="round" stroke-linejoin="round"/>
<path d="M444.6 365.65C445.659 370.543 447.594 375.205 450.31 379.41" stroke="white" stroke-linecap="round" stroke-linejoin="round"/>
<path d="M419.74 365.9C411.95 349.28 403.64 332.79 393.43 307.66" stroke="white" stroke-linecap="round" stroke-linejoin="round"/>
<path d="M421.5 370.73C421.31 370.15 421.11 369.57 420.9 368.98" stroke="white" stroke-linecap="round" stroke-linejoin="round"/>
<path d="M448.43 421.829C446.43 419.219 431.85 398.829 428.23 389.589C425.82 383.429 424 379.079 422.23 372.939" stroke="white" stroke-linecap="round" stroke-linejoin="round"/>
<path d="M442.93 382.59L449.86 402.96" stroke="white" stroke-linecap="round" stroke-linejoin="round"/>
<path d="M438.26 228.741L436.16 228.911C433.499 229.384 430.766 229.258 428.16 228.541C426.49 228.131 422.62 226.931 422.16 226.851C421.01 226.605 419.849 226.418 418.68 226.291C415.15 226.081 416.94 224.761 418.41 224.821C420.35 224.911 421 224.871 422.49 224.981C422.31 224.881 421.76 224.771 421.75 224.341C421.75 223.291 423.13 223.341 423.13 223.341C423.13 223.341 421.62 222.701 421.83 221.911C422.04 221.121 423.05 220.911 423.69 220.971C423.69 220.971 422.84 220.561 422.88 220.121C423.06 218.421 426.55 218.301 426.55 218.301C425.706 217.924 424.916 217.436 424.2 216.851C423.939 216.57 423.756 216.225 423.67 215.851C423.651 215.673 423.681 215.493 423.755 215.33C423.83 215.167 423.947 215.027 424.094 214.925C424.241 214.823 424.413 214.762 424.592 214.749C424.771 214.736 424.95 214.771 425.11 214.851C426.013 215.452 426.884 216.1 427.72 216.791C428.8 217.561 430.05 218.051 431.19 218.741C432.301 219.692 433.197 220.868 433.82 222.191C434 222.471 438.26 228.741 438.26 228.741Z" fill="white" stroke="#263238" stroke-linecap="round" stroke-linejoin="round"/>
<path d="M343.78 207.51V202C343.767 199.235 344.172 196.484 344.98 193.84C345.44 192.38 345.98 191.11 346.47 190.92C347.38 190.59 347.78 194.28 347.78 194.28C347.096 191.321 346.658 188.311 346.47 185.28C346.47 182.07 350.79 195.4 350.79 195.4L349.07 207.51H343.78Z" fill="white" stroke="#263238" stroke-linecap="round" stroke-linejoin="round"/>
<path d="M349 198.551C349.523 198.148 349.913 197.598 350.12 196.971L349 198.551Z" fill="white"/>
<path d="M349 198.551C349.523 198.148 349.913 197.598 350.12 196.971" stroke="#263238" stroke-linecap="round" stroke-linejoin="round"/>
<path d="M390.881 219C392.749 222.144 393.781 225.714 393.881 229.37C394.061 235.45 401.101 243.96 403.111 244.37C405.121 244.78 406.981 234.77 406.891 231.74C406.801 228.71 405.681 220.34 405.681 220.34C405.681 220.34 396.051 213.06 390.881 219Z" fill="white" stroke="#263238" stroke-linecap="round" stroke-linejoin="round"/>
<path d="M393.711 227.051C393.711 227.051 402.941 239.641 406.561 226.841C410.181 214.041 396.411 230.341 393.711 227.051Z" fill="#263238"/>
<path d="M409.29 218C408.8 225.47 405.39 229.67 401.46 230.41C397.87 231.07 392.62 227.41 390 221.98C389.8 221.85 386.61 219.64 385.85 219.1C385.453 218.822 385.129 218.452 384.906 218.022C384.683 217.592 384.568 217.114 384.57 216.63C384.595 216.165 384.759 215.719 385.041 215.348C385.323 214.977 385.709 214.699 386.15 214.55H386.24C386.69 214.452 387.159 214.487 387.59 214.65C386.93 212.1 386.39 209.51 385.98 206.9C386.17 200.9 388.16 196 394.56 195.52C400.96 195.04 406.31 198.62 406.56 201.2C406.74 203.2 407.39 208.49 407.97 213.96C408.13 215.38 409.4 216.32 409.29 218Z" fill="white" stroke="#263238" stroke-linecap="round" stroke-linejoin="round"/>
<path d="M406.561 209.36C406.561 209.36 402.441 207.47 403.141 213.61C403.281 214.82 405.531 216.61 405.531 216.61C405.531 216.61 404.951 218.42 403.881 218.42" fill="white"/>
<path d="M406.561 209.36C406.561 209.36 402.441 207.47 403.141 213.61C403.281 214.82 405.531 216.61 405.531 216.61C405.531 216.61 404.951 218.42 403.881 218.42" stroke="#263238" stroke-linecap="round" stroke-linejoin="round"/>
<path d="M398.601 211.46C398.601 211.46 396.501 210.18 395.061 210.97C394.31 211.297 393.67 211.835 393.221 212.52" fill="white"/>
<path d="M398.601 211.46C398.601 211.46 396.501 210.18 395.061 210.97C394.31 211.297 393.67 211.835 393.221 212.52" stroke="#263238" stroke-linecap="round" stroke-linejoin="round"/>
<path d="M397.4 215.001C397.56 215.741 397.4 216.401 396.97 216.491C396.54 216.581 396.12 216.041 395.97 215.301C395.82 214.561 395.97 213.901 396.41 213.811C396.85 213.721 397.25 214.251 397.4 215.001Z" fill="#263238"/>
<path d="M405.52 212.84C405.68 213.58 405.52 214.24 405.09 214.33C404.66 214.42 404.24 213.88 404.09 213.15C403.94 212.42 404.09 211.74 404.52 211.66C404.95 211.58 405.37 212.11 405.52 212.84Z" fill="#263238"/>
<path d="M385.501 199.15C384.77 199.867 384.262 200.78 384.041 201.78C383.442 203.894 383.269 206.107 383.531 208.288C383.794 210.47 384.487 212.578 385.571 214.49C386.238 214.408 386.913 214.435 387.571 214.57C388.271 214.75 389.171 215.95 389.501 216.57C389.79 217.231 389.956 217.939 389.991 218.66C389.831 216.76 389.681 214.87 389.521 212.97C389.414 212.21 389.448 211.437 389.621 210.69C390.111 209.13 389.571 205.45 389.711 202.16C393.861 207.23 399.891 206.33 401.891 206.16C404.891 205.91 407.451 202.84 407.291 200.65C407.131 198.46 406.541 192.82 396.651 192.24C394.472 192.008 392.275 192.466 390.371 193.55C389.767 193.948 389.255 194.469 388.867 195.079C388.479 195.689 388.225 196.375 388.121 197.09C387.981 198.01 388.331 198.09 387.631 198.54C386.931 198.99 386.191 198.56 385.501 199.15Z" fill="#263238" stroke="#263238" stroke-linecap="round" stroke-linejoin="round"/>
<path d="M398.6 221.939C398.6 221.939 400.07 223.559 403.14 222.489L398.6 221.939Z" fill="white"/>
<path d="M398.6 221.939C398.6 221.939 400.07 223.559 403.14 222.489" stroke="#263238" stroke-linecap="round" stroke-linejoin="round"/>
</svg>
