<svg width="167" height="196" viewBox="0 0 167 196" fill="none" xmlns="http://www.w3.org/2000/svg">
<path d="M83.5 48.5L20 0V152.5H34V28.5L83.5 66V48.5Z" fill="white"/>
<path d="M41 42V59.5L84.5 93L152.5 42V153H166.5V12.5L84.5 76L41 42Z" fill="white"/>
<path d="M0 11V152H13V20.5L0 11Z" fill="#F4FF00"/>
<path d="M83 104.5V121.5L131.5 84V152.5H146V56.5L83 104.5Z" fill="#F4FF00"/>
<rect y="161" width="167" height="35" fill="black"/>
<path d="M23.8854 183C23.8047 183 23.7534 182.963 23.7314 182.89L21.7844 175.443L21.7734 175.399C21.7734 175.333 21.8137 175.3 21.8944 175.3H23.2584C23.3317 175.3 23.3794 175.337 23.4014 175.41L24.4464 179.887C24.4537 179.916 24.4647 179.931 24.4794 179.931C24.4941 179.931 24.5051 179.916 24.5124 179.887L25.5244 175.421C25.5464 175.34 25.5941 175.3 25.6674 175.3H26.9984C27.0791 175.3 27.1304 175.337 27.1524 175.41L28.2524 179.887C28.2597 179.909 28.2707 179.924 28.2854 179.931C28.3001 179.931 28.3111 179.916 28.3184 179.887L29.3304 175.421C29.3524 175.34 29.4001 175.3 29.4734 175.3H30.7714C30.8741 175.3 30.9144 175.348 30.8924 175.443L29.0884 182.89C29.0664 182.963 29.0151 183 28.9344 183H27.6254C27.5521 183 27.5044 182.963 27.4824 182.89L26.3604 178.127C26.3531 178.098 26.3421 178.083 26.3274 178.083C26.3127 178.083 26.3017 178.098 26.2944 178.127L25.2494 182.879C25.2347 182.96 25.1871 183 25.1064 183H23.8854ZM39.5761 179.59C39.6201 179.869 39.6348 180.18 39.6201 180.525C39.6128 180.613 39.5651 180.657 39.4771 180.657H36.0781C36.0341 180.657 36.0195 180.675 36.0341 180.712C36.0561 180.859 36.0965 181.005 36.1551 181.152C36.3458 181.563 36.7345 181.768 37.3211 181.768C37.7905 181.761 38.1608 181.57 38.4321 181.196C38.4615 181.152 38.4945 181.13 38.5311 181.13C38.5531 181.13 38.5788 181.145 38.6081 181.174L39.4001 181.955C39.4368 181.992 39.4551 182.025 39.4551 182.054C39.4551 182.069 39.4405 182.098 39.4111 182.142C39.1691 182.443 38.8575 182.677 38.4761 182.846C38.0948 183.007 37.6768 183.088 37.2221 183.088C36.5915 183.088 36.0561 182.945 35.6161 182.659C35.1835 182.373 34.8718 181.973 34.6811 181.46C34.5271 181.093 34.4501 180.613 34.4501 180.019C34.4501 179.616 34.5051 179.26 34.6151 178.952C34.7838 178.431 35.0771 178.017 35.4951 177.709C35.9205 177.401 36.4228 177.247 37.0021 177.247C37.7355 177.247 38.3221 177.46 38.7621 177.885C39.2095 178.31 39.4808 178.879 39.5761 179.59ZM37.0131 178.589C36.5511 178.589 36.2468 178.805 36.1001 179.238C36.0708 179.333 36.0451 179.451 36.0231 179.59C36.0231 179.627 36.0415 179.645 36.0781 179.645H37.9811C38.0251 179.645 38.0398 179.627 38.0251 179.59C37.9885 179.377 37.9701 179.275 37.9701 179.282C37.9041 179.062 37.7868 178.893 37.6181 178.776C37.4568 178.651 37.2551 178.589 37.0131 178.589ZM49.101 178.787C49.2404 179.168 49.31 179.623 49.31 180.151C49.31 180.657 49.2477 181.101 49.123 181.482C48.9544 181.981 48.683 182.373 48.309 182.659C47.9424 182.945 47.506 183.088 47 183.088C46.4647 183.088 46.043 182.886 45.735 182.483C45.7204 182.468 45.7057 182.465 45.691 182.472C45.6764 182.472 45.669 182.483 45.669 182.505V182.868C45.669 182.905 45.6544 182.938 45.625 182.967C45.603 182.989 45.5737 183 45.537 183H44.25C44.2134 183 44.1804 182.989 44.151 182.967C44.129 182.938 44.118 182.905 44.118 182.868V175.432C44.118 175.395 44.129 175.366 44.151 175.344C44.1804 175.315 44.2134 175.3 44.25 175.3H45.537C45.5737 175.3 45.603 175.315 45.625 175.344C45.6544 175.366 45.669 175.395 45.669 175.432V177.786C45.669 177.808 45.6764 177.823 45.691 177.83C45.7057 177.837 45.7204 177.83 45.735 177.808C46.021 177.441 46.428 177.258 46.956 177.258C47.4914 177.258 47.9387 177.397 48.298 177.676C48.6647 177.947 48.9324 178.318 49.101 178.787ZM47.473 181.284C47.627 181.005 47.704 180.639 47.704 180.184C47.704 179.678 47.616 179.289 47.44 179.018C47.264 178.732 47.0037 178.589 46.659 178.589C46.3364 178.589 46.0907 178.732 45.922 179.018C45.7607 179.297 45.68 179.682 45.68 180.173C45.68 180.664 45.7534 181.035 45.9 181.284C46.076 181.599 46.3327 181.757 46.67 181.757C47.0294 181.757 47.297 181.599 47.473 181.284ZM65.5218 183C65.4851 183 65.4521 182.989 65.4228 182.967C65.4008 182.938 65.3898 182.905 65.3898 182.868V175.432C65.3898 175.395 65.4008 175.366 65.4228 175.344C65.4521 175.315 65.4851 175.3 65.5218 175.3H68.2718C68.8218 175.3 69.3021 175.399 69.7128 175.597C70.1308 175.788 70.4535 176.059 70.6808 176.411C70.9081 176.763 71.0218 177.17 71.0218 177.632V180.668C71.0218 181.13 70.9081 181.537 70.6808 181.889C70.4535 182.241 70.1308 182.516 69.7128 182.714C69.3021 182.905 68.8218 183 68.2718 183H65.5218ZM66.9408 181.614C66.9408 181.651 66.9591 181.669 66.9958 181.669H68.3268C68.6641 181.669 68.9355 181.555 69.1408 181.328C69.3535 181.101 69.4635 180.796 69.4708 180.415V177.885C69.4708 177.504 69.3645 177.199 69.1518 176.972C68.9465 176.745 68.6678 176.631 68.3158 176.631H66.9958C66.9591 176.631 66.9408 176.649 66.9408 176.686V181.614ZM80.6156 179.59C80.6596 179.869 80.6743 180.18 80.6596 180.525C80.6523 180.613 80.6046 180.657 80.5166 180.657H77.1176C77.0736 180.657 77.0589 180.675 77.0736 180.712C77.0956 180.859 77.1359 181.005 77.1946 181.152C77.3853 181.563 77.7739 181.768 78.3606 181.768C78.8299 181.761 79.2003 181.57 79.4716 181.196C79.5009 181.152 79.5339 181.13 79.5706 181.13C79.5926 181.13 79.6183 181.145 79.6476 181.174L80.4396 181.955C80.4763 181.992 80.4946 182.025 80.4946 182.054C80.4946 182.069 80.4799 182.098 80.4506 182.142C80.2086 182.443 79.8969 182.677 79.5156 182.846C79.1343 183.007 78.7163 183.088 78.2616 183.088C77.6309 183.088 77.0956 182.945 76.6556 182.659C76.2229 182.373 75.9113 181.973 75.7206 181.46C75.5666 181.093 75.4896 180.613 75.4896 180.019C75.4896 179.616 75.5446 179.26 75.6546 178.952C75.8233 178.431 76.1166 178.017 76.5346 177.709C76.9599 177.401 77.4623 177.247 78.0416 177.247C78.7749 177.247 79.3616 177.46 79.8016 177.885C80.2489 178.31 80.5203 178.879 80.6156 179.59ZM78.0526 178.589C77.5906 178.589 77.2863 178.805 77.1396 179.238C77.1103 179.333 77.0846 179.451 77.0626 179.59C77.0626 179.627 77.0809 179.645 77.1176 179.645H79.0206C79.0646 179.645 79.0793 179.627 79.0646 179.59C79.0279 179.377 79.0096 179.275 79.0096 179.282C78.9436 179.062 78.8263 178.893 78.6576 178.776C78.4963 178.651 78.2946 178.589 78.0526 178.589ZM86.397 183C86.3236 183 86.276 182.963 86.254 182.89L84.494 177.489C84.4866 177.474 84.483 177.456 84.483 177.434C84.483 177.368 84.5233 177.335 84.604 177.335H86.023C86.1036 177.335 86.155 177.372 86.177 177.445L87.079 180.778C87.0863 180.8 87.0973 180.811 87.112 180.811C87.1266 180.811 87.1376 180.8 87.145 180.778L88.047 177.445C88.069 177.372 88.1203 177.335 88.201 177.335L89.62 177.357C89.664 177.357 89.697 177.372 89.719 177.401C89.741 177.423 89.7446 177.46 89.73 177.511L87.981 182.89C87.959 182.963 87.9113 183 87.838 183H86.397ZM98.6986 179.59C98.7426 179.869 98.7572 180.18 98.7426 180.525C98.7352 180.613 98.6876 180.657 98.5996 180.657H95.2006C95.1566 180.657 95.1419 180.675 95.1566 180.712C95.1786 180.859 95.2189 181.005 95.2776 181.152C95.4682 181.563 95.8569 181.768 96.4436 181.768C96.9129 181.761 97.2832 181.57 97.5546 181.196C97.5839 181.152 97.6169 181.13 97.6536 181.13C97.6756 181.13 97.7012 181.145 97.7306 181.174L98.5226 181.955C98.5592 181.992 98.5776 182.025 98.5776 182.054C98.5776 182.069 98.5629 182.098 98.5336 182.142C98.2916 182.443 97.9799 182.677 97.5986 182.846C97.2172 183.007 96.7992 183.088 96.3446 183.088C95.7139 183.088 95.1786 182.945 94.7386 182.659C94.3059 182.373 93.9942 181.973 93.8036 181.46C93.6496 181.093 93.5726 180.613 93.5726 180.019C93.5726 179.616 93.6276 179.26 93.7376 178.952C93.9062 178.431 94.1996 178.017 94.6176 177.709C95.0429 177.401 95.5452 177.247 96.1246 177.247C96.8579 177.247 97.4446 177.46 97.8846 177.885C98.3319 178.31 98.6032 178.879 98.6986 179.59ZM96.1356 178.589C95.6736 178.589 95.3692 178.805 95.2226 179.238C95.1932 179.333 95.1676 179.451 95.1456 179.59C95.1456 179.627 95.1639 179.645 95.2006 179.645H97.1036C97.1476 179.645 97.1622 179.627 97.1476 179.59C97.1109 179.377 97.0926 179.275 97.0926 179.282C97.0266 179.062 96.9092 178.893 96.7406 178.776C96.5792 178.651 96.3776 178.589 96.1356 178.589ZM103.35 183C103.314 183 103.281 182.989 103.251 182.967C103.229 182.938 103.218 182.905 103.218 182.868V175.432C103.218 175.395 103.229 175.366 103.251 175.344C103.281 175.315 103.314 175.3 103.35 175.3H104.637C104.674 175.3 104.703 175.315 104.725 175.344C104.755 175.366 104.769 175.395 104.769 175.432V182.868C104.769 182.905 104.755 182.938 104.725 182.967C104.703 182.989 104.674 183 104.637 183H103.35ZM111.921 183.088C111.305 183.088 110.777 182.927 110.337 182.604C109.897 182.281 109.596 181.841 109.435 181.284C109.332 180.939 109.281 180.565 109.281 180.162C109.281 179.729 109.332 179.341 109.435 178.996C109.604 178.453 109.908 178.028 110.348 177.72C110.788 177.412 111.316 177.258 111.932 177.258C112.533 177.258 113.047 177.412 113.472 177.72C113.897 178.021 114.198 178.442 114.374 178.985C114.491 179.352 114.55 179.737 114.55 180.14C114.55 180.536 114.499 180.906 114.396 181.251C114.235 181.823 113.934 182.274 113.494 182.604C113.061 182.927 112.537 183.088 111.921 183.088ZM111.921 181.757C112.163 181.757 112.368 181.684 112.537 181.537C112.706 181.39 112.827 181.189 112.9 180.932C112.959 180.697 112.988 180.441 112.988 180.162C112.988 179.854 112.959 179.594 112.9 179.381C112.819 179.132 112.695 178.937 112.526 178.798C112.357 178.659 112.152 178.589 111.91 178.589C111.661 178.589 111.452 178.659 111.283 178.798C111.122 178.937 111.004 179.132 110.931 179.381C110.872 179.557 110.843 179.817 110.843 180.162C110.843 180.492 110.869 180.749 110.92 180.932C110.993 181.189 111.114 181.39 111.283 181.537C111.459 181.684 111.672 181.757 111.921 181.757ZM124.116 178.864C124.248 179.238 124.314 179.678 124.314 180.184C124.314 180.69 124.244 181.148 124.105 181.559C123.936 182.028 123.669 182.402 123.302 182.681C122.943 182.952 122.495 183.088 121.96 183.088C121.432 183.088 121.021 182.905 120.728 182.538C120.713 182.516 120.699 182.509 120.684 182.516C120.669 182.523 120.662 182.538 120.662 182.56V184.914C120.662 184.951 120.647 184.98 120.618 185.002C120.596 185.031 120.567 185.046 120.53 185.046H119.243C119.206 185.046 119.173 185.031 119.144 185.002C119.122 184.98 119.111 184.951 119.111 184.914V177.478C119.111 177.441 119.122 177.412 119.144 177.39C119.173 177.361 119.206 177.346 119.243 177.346H120.53C120.567 177.346 120.596 177.361 120.618 177.39C120.647 177.412 120.662 177.441 120.662 177.478V177.841C120.662 177.863 120.669 177.878 120.684 177.885C120.699 177.885 120.713 177.878 120.728 177.863C121.036 177.46 121.461 177.258 122.004 177.258C122.51 177.258 122.946 177.401 123.313 177.687C123.687 177.966 123.955 178.358 124.116 178.864ZM122.433 181.328C122.616 181.042 122.708 180.653 122.708 180.162C122.708 179.7 122.631 179.333 122.477 179.062C122.308 178.747 122.037 178.589 121.663 178.589C121.326 178.589 121.073 178.747 120.904 179.062C120.75 179.326 120.673 179.696 120.673 180.173C120.673 180.664 120.754 181.046 120.915 181.317C121.084 181.61 121.333 181.757 121.663 181.757C121.993 181.757 122.25 181.614 122.433 181.328ZM133.812 179.59C133.856 179.869 133.87 180.18 133.856 180.525C133.848 180.613 133.801 180.657 133.713 180.657H130.314C130.27 180.657 130.255 180.675 130.27 180.712C130.292 180.859 130.332 181.005 130.391 181.152C130.581 181.563 130.97 181.768 131.557 181.768C132.026 181.761 132.396 181.57 132.668 181.196C132.697 181.152 132.73 181.13 132.767 181.13C132.789 181.13 132.814 181.145 132.844 181.174L133.636 181.955C133.672 181.992 133.691 182.025 133.691 182.054C133.691 182.069 133.676 182.098 133.647 182.142C133.405 182.443 133.093 182.677 132.712 182.846C132.33 183.007 131.912 183.088 131.458 183.088C130.827 183.088 130.292 182.945 129.852 182.659C129.419 182.373 129.107 181.973 128.917 181.46C128.763 181.093 128.686 180.613 128.686 180.019C128.686 179.616 128.741 179.26 128.851 178.952C129.019 178.431 129.313 178.017 129.731 177.709C130.156 177.401 130.658 177.247 131.238 177.247C131.971 177.247 132.558 177.46 132.998 177.885C133.445 178.31 133.716 178.879 133.812 179.59ZM131.249 178.589C130.787 178.589 130.482 178.805 130.336 179.238C130.306 179.333 130.281 179.451 130.259 179.59C130.259 179.627 130.277 179.645 130.314 179.645H132.217C132.261 179.645 132.275 179.627 132.261 179.59C132.224 179.377 132.206 179.275 132.206 179.282C132.14 179.062 132.022 178.893 131.854 178.776C131.692 178.651 131.491 178.589 131.249 178.589ZM141.148 177.269C141.412 177.269 141.621 177.32 141.775 177.423C141.833 177.452 141.855 177.507 141.841 177.588L141.61 178.842C141.602 178.93 141.551 178.956 141.456 178.919C141.346 178.882 141.217 178.864 141.071 178.864C141.012 178.864 140.931 178.871 140.829 178.886C140.565 178.908 140.341 179.007 140.158 179.183C139.974 179.352 139.883 179.579 139.883 179.865V182.868C139.883 182.905 139.868 182.938 139.839 182.967C139.817 182.989 139.787 183 139.751 183H138.464C138.427 183 138.394 182.989 138.365 182.967C138.343 182.938 138.332 182.905 138.332 182.868V177.478C138.332 177.441 138.343 177.412 138.365 177.39C138.394 177.361 138.427 177.346 138.464 177.346H139.751C139.787 177.346 139.817 177.361 139.839 177.39C139.868 177.412 139.883 177.441 139.883 177.478V177.896C139.883 177.918 139.89 177.933 139.905 177.94C139.919 177.947 139.93 177.944 139.938 177.929C140.238 177.489 140.642 177.269 141.148 177.269Z" fill="white"/>
<path d="M41.1849 152C40.8956 152 40.6682 151.917 40.5029 151.752C40.3376 151.587 40.2549 151.359 40.2549 151.07V109.53C40.2549 109.241 40.3376 109.013 40.5029 108.848C40.6682 108.683 40.8956 108.6 41.1849 108.6H57.1189C60.4669 108.6 63.4222 109.179 65.9849 110.336C68.5889 111.493 70.5936 113.126 71.9989 115.234C73.4042 117.342 74.1069 119.781 74.1069 122.55V138.05C74.1069 140.819 73.4042 143.258 71.9989 145.366C70.5936 147.474 68.5889 149.107 65.9849 150.264C63.4222 151.421 60.4669 152 57.1189 152H41.1849ZM51.9109 141.708C51.9109 141.915 52.0142 142.018 52.2209 142.018H57.5529C58.9582 142.018 60.1156 141.481 61.0249 140.406C61.9342 139.29 62.4096 137.843 62.4509 136.066V124.534C62.4509 122.757 61.9962 121.331 61.0869 120.256C60.1776 119.14 58.9789 118.582 57.4909 118.582H52.2209C52.0142 118.582 51.9109 118.685 51.9109 118.892V141.708Z" fill="white"/>
<rect x="11" y="177" width="4" height="4" fill="#F4FF00"/>
<rect x="153" y="177" width="4" height="4" fill="#F4FF00"/>
</svg>
